<?xml version="1.0" encoding="utf-8"?>
<!-- Generator: Adobe Illustrator 23.0.1, SVG Export Plug-In . SVG Version: 6.00 Build 0)  -->
<svg version="1.1" id="Layer_1" xmlns="http://www.w3.org/2000/svg" xmlns:xlink="http://www.w3.org/1999/xlink" x="0px" y="0px"
	 viewBox="0 0 100 100" style="enable-background:new 0 0 100 100;" xml:space="preserve">
<style type="text/css">
	.st0{fill:#3279CE;}
	.st1{fill:#4697E8;}
	.st2{fill:#FFFFFF;}
	.st3{fill:#D9E1ED;}
	.st4{fill:#1188EA;}
	.st5{fill:#E4EAF2;}
	.st6{fill:url(#SVGID_1_);}
	.st7{fill:url(#SVGID_2_);}
	.st8{fill:url(#SVGID_3_);}
	.st9{fill:url(#SVGID_4_);}
	.st10{fill:url(#SVGID_5_);}
	.st11{fill:url(#SVGID_6_);}
	.st12{fill:url(#SVGID_7_);}
	.st13{fill:url(#SVGID_8_);}
</style>
<rect x="26.98" y="7.51" class="st0" width="47.19" height="9.8"/>
<polygon class="st0" points="50.93,47.98 47.16,44.56 80.74,13.85 84.5,17.27 "/>
<polygon class="st1" points="44.09,41.77 40.33,38.35 73.9,7.64 77.67,11.06 "/>
<polygon class="st2" points="46.37,43.84 42.61,40.42 76.18,9.71 79.95,13.13 "/>
<polygon class="st3" points="48.09,45.4 44.88,42.49 78.46,11.78 81.67,14.69 "/>
<polygon class="st0" points="50.93,47.98 47.16,44.56 80.74,13.85 84.5,17.27 "/>
<polygon class="st1" points="44.09,41.77 40.33,38.35 73.9,7.64 77.67,11.06 "/>
<polygon class="st2" points="46.37,43.84 42.61,40.42 76.18,9.71 79.95,13.13 "/>
<polygon class="st4" points="44.09,41.77 40.33,38.35 54.88,25.04 58.65,28.46 "/>
<polygon class="st5" points="46.37,43.84 42.61,40.42 57.16,27.11 60.92,30.53 "/>
<polygon class="st3" points="48.09,45.4 44.88,42.49 78.46,11.78 81.67,14.69 "/>
<polygon class="st0" points="61.4,38.33 57.67,41.79 23.26,10.97 26.98,7.51 "/>
<polygon class="st1" points="54.64,44.61 50.92,48.06 16.5,17.25 20.22,13.79 "/>
<polygon class="st2" points="56.89,42.52 53.17,45.97 18.75,15.15 22.48,11.7 "/>
<polygon class="st3" points="58.59,40.94 55.42,43.88 21.01,13.06 24.18,10.12 "/>
<polygon class="st1" points="61.4,38.33 57.67,41.79 23.26,10.97 26.98,7.51 "/>
<polygon class="st0" points="54.64,44.61 50.92,48.06 16.5,17.25 20.22,13.79 "/>
<polygon class="st2" points="56.89,42.52 53.17,45.97 18.75,15.15 22.48,11.7 "/>
<polygon class="st3" points="58.59,40.94 55.42,43.88 21.01,13.06 24.18,10.12 "/>
<linearGradient id="SVGID_1_" gradientUnits="userSpaceOnUse" x1="27.7881" y1="42.7364" x2="61.0795" y2="76.0278">
	<stop  offset="0" style="stop-color:#FFFFFF"/>
	<stop  offset="0.1392" style="stop-color:#F8EFE9"/>
	<stop  offset="0.4285" style="stop-color:#E7C5B1"/>
	<stop  offset="0.84" style="stop-color:#CB8158"/>
	<stop  offset="1" style="stop-color:#C06634"/>
</linearGradient>
<path class="st6" d="M51.77,87.51c15.63,0,28.29-11.55,28.29-25.8H23.47C23.47,75.96,36.14,87.51,51.77,87.51z"/>
<linearGradient id="SVGID_2_" gradientUnits="userSpaceOnUse" x1="31.3276" y1="36.2803" x2="64.619" y2="69.5717">
	<stop  offset="0" style="stop-color:#FFFFFF"/>
	<stop  offset="0.6217" style="stop-color:#D08C67"/>
	<stop  offset="0.6622" style="stop-color:#CD845D"/>
	<stop  offset="0.7026" style="stop-color:#CA7D53"/>
	<stop  offset="0.8192" style="stop-color:#C97B51"/>
	<stop  offset="0.8823" style="stop-color:#C77549"/>
	<stop  offset="0.9324" style="stop-color:#C26B3B"/>
	<stop  offset="0.9506" style="stop-color:#C06634"/>
</linearGradient>
<path class="st7" d="M51.77,35.92c-15.63,0-28.29,11.55-28.29,25.8h56.59C80.06,47.47,67.39,35.92,51.77,35.92z"/>
<linearGradient id="SVGID_3_" gradientUnits="userSpaceOnUse" x1="40.1039" y1="53.5558" x2="63.4272" y2="76.8791">
	<stop  offset="0" style="stop-color:#FFFFFF"/>
	<stop  offset="0.1127" style="stop-color:#FDFBFA"/>
	<stop  offset="0.2549" style="stop-color:#F8EFEA"/>
	<stop  offset="0.4128" style="stop-color:#F0DCD0"/>
	<stop  offset="0.5823" style="stop-color:#E5C1AC"/>
	<stop  offset="0.7609" style="stop-color:#D79E7E"/>
	<stop  offset="0.9445" style="stop-color:#C67446"/>
	<stop  offset="1" style="stop-color:#C06634"/>
</linearGradient>
<path class="st8" d="M51.77,79.79c10.95,0,19.82-8.09,19.82-18.07H31.94C31.94,71.7,40.82,79.79,51.77,79.79z"/>
<linearGradient id="SVGID_4_" gradientUnits="userSpaceOnUse" x1="38.8398" y1="45.289" x2="62.1631" y2="68.6123">
	<stop  offset="0" style="stop-color:#FFFFFF"/>
	<stop  offset="1" style="stop-color:#C06634"/>
</linearGradient>
<path class="st9" d="M51.77,43.64c-10.95,0-19.82,8.09-19.82,18.07h39.64C71.59,51.73,62.71,43.64,51.77,43.64z"/>
<linearGradient id="SVGID_5_" gradientUnits="userSpaceOnUse" x1="41.7759" y1="51.7264" x2="61.7553" y2="71.7058">
	<stop  offset="0" style="stop-color:#FFFFFF"/>
	<stop  offset="0.0894" style="stop-color:#FDFBF9"/>
	<stop  offset="0.2075" style="stop-color:#F8EEE8"/>
	<stop  offset="0.3415" style="stop-color:#F0D9CD"/>
	<stop  offset="0.4874" style="stop-color:#E4BDA7"/>
	<stop  offset="0.6429" style="stop-color:#D49876"/>
	<stop  offset="0.8042" style="stop-color:#C26B3B"/>
	<stop  offset="0.8213" style="stop-color:#C06634"/>
</linearGradient>
<ellipse class="st10" cx="51.77" cy="61.72" rx="14.76" ry="13.46"/>
<linearGradient id="SVGID_6_" gradientUnits="userSpaceOnUse" x1="39.0606" y1="60.2199" x2="57.3235" y2="78.4828">
	<stop  offset="0" style="stop-color:#FFFFFF"/>
	<stop  offset="0.1509" style="stop-color:#FEFCFB"/>
	<stop  offset="0.2922" style="stop-color:#FAF4F0"/>
	<stop  offset="0.4297" style="stop-color:#F4E5DD"/>
	<stop  offset="0.5649" style="stop-color:#ECD1C2"/>
	<stop  offset="0.6984" style="stop-color:#E2B7A0"/>
	<stop  offset="0.8307" style="stop-color:#D49876"/>
	<stop  offset="0.9595" style="stop-color:#C57345"/>
	<stop  offset="1" style="stop-color:#C06634"/>
</linearGradient>
<path class="st11" d="M51.77,85.82c-5.95,0-11.57-1.76-16.25-5.09c-1.05-0.75-1.24-2.13-0.42-3.09c0.82-0.96,2.34-1.13,3.39-0.38
	c3.82,2.72,8.42,4.16,13.28,4.16c7.62,0,14.76-3.72,18.63-9.72c0.68-1.05,2.16-1.4,3.31-0.78c1.15,0.62,1.53,1.97,0.86,3.02
	C69.82,81.26,61.09,85.82,51.77,85.82z"/>
<linearGradient id="SVGID_7_" gradientUnits="userSpaceOnUse" x1="42.6493" y1="42.4288" x2="61.8159" y2="61.5954">
	<stop  offset="0" style="stop-color:#FFFFFF"/>
	<stop  offset="0.1463" style="stop-color:#F2DFD5"/>
	<stop  offset="0.4607" style="stop-color:#D79E7F"/>
	<stop  offset="0.6826" style="stop-color:#C67649"/>
	<stop  offset="0.79" style="stop-color:#C06634"/>
</linearGradient>
<path class="st12" d="M30.19,54.29c-0.36,0-0.72-0.07-1.06-0.23c-1.2-0.54-1.69-1.86-1.11-2.95c4.48-8.33,13.58-13.5,23.74-13.5
	c6.39,0,12.56,2.11,17.37,5.93c1.01,0.8,1.11,2.19,0.23,3.11c-0.88,0.92-2.4,1.01-3.41,0.21c-3.93-3.12-8.97-4.84-14.19-4.84
	c-8.31,0-15.74,4.23-19.41,11.03C31.94,53.84,31.08,54.29,30.19,54.29z"/>
<linearGradient id="SVGID_8_" gradientUnits="userSpaceOnUse" x1="36.3548" y1="41.3295" x2="44.9395" y2="49.9143">
	<stop  offset="0" style="stop-color:#FFFFFF"/>
	<stop  offset="1" style="stop-color:#C06634"/>
</linearGradient>
<path class="st13" d="M30.19,54.29c-0.36,0-0.72-0.07-1.06-0.23c-1.2-0.54-1.69-1.86-1.11-2.95c4.48-8.33,13.58-13.5,23.74-13.5
	c1.33,0,2.42,0.99,2.42,2.2c0,1.22-1.08,2.2-2.42,2.2c-8.31,0-15.74,4.23-19.41,11.03C31.94,53.84,31.08,54.29,30.19,54.29z"/>
</svg>
