<?xml version="1.0" encoding="utf-8"?>
<svg width="46px" height="46px" viewBox="0 0 46 46" version="1.1" xmlns:xlink="http://www.w3.org/1999/xlink" xmlns="http://www.w3.org/2000/svg">
  <desc>Created with Lunacy</desc>
  <g id="sport" transform="matrix(-1 0 0 1 46 0)">
    <path d="M44.3529 38.1566L41.7928 38.1566C44.3354 36.3203 46 33.2868 46 29.8617C46 24.2715 41.5666 19.7235 36.1172 19.7235C34.6388 19.7235 33.2355 20.0588 31.9749 20.6583L29.4696 16.2069C29.4568 16.184 29.4427 16.1625 29.4283 16.1413L35.4806 11.932C37.2294 10.7157 38.2734 8.69574 38.2734 6.52837C38.2734 2.92856 35.4186 0 31.9095 0L30.3672 0C29.871 0 29.4687 0.412718 29.4687 0.921657C29.4687 1.4306 29.871 1.84331 30.3672 1.84331L31.9095 1.84331C34.4277 1.84331 36.4765 3.94506 36.4765 6.52837C36.4765 8.08376 35.7273 9.53334 34.4723 10.4062L26.943 15.6425C26.7373 15.7857 26.5985 16.0097 26.5597 16.2616L24.2587 31.2067C24.2472 31.2817 24.1849 31.3362 24.1108 31.3362L22.94 31.3362C22.8575 31.3362 22.7903 31.2673 22.7903 31.1826L22.7903 16.9576C22.7903 15.2199 23.7004 13.5986 25.1654 12.7261L28.4823 10.7509C28.8336 10.5417 29.0045 10.1167 28.8988 9.71426C28.7932 9.31187 28.4375 9.03224 28.0313 9.03224L21.4986 9.03224L22.272 5.95768C22.396 5.46478 22.1071 4.96211 21.6266 4.83492C21.1463 4.70755 20.6562 5.00414 20.5321 5.49704L19.2898 10.4354C19.0767 11.2825 18.3321 11.8742 17.4793 11.8742L13.2535 11.8742C12.6729 11.8742 12.2005 11.3896 12.2005 10.7939C12.2005 10.1982 12.6729 9.71362 13.2535 9.71362L16.3122 9.71362C16.8083 9.71362 17.2106 9.3009 17.2106 8.79196L17.2106 4.14736C17.2106 3.63842 16.8083 3.22571 16.3122 3.22571C15.816 3.22571 15.4137 3.63842 15.4137 4.14736L15.4137 7.8703L9.07918 7.8703C8.1077 7.8703 7.21905 8.32984 6.64135 9.13122C6.06357 9.93251 5.89529 10.9387 6.17982 11.8919C6.57262 13.2075 7.73781 14.0915 9.07918 14.0915L9.25383 14.0915C9.74995 14.0915 10.1523 13.6788 10.1523 13.1698C10.1523 12.6609 9.74995 12.2482 9.25383 12.2482L9.07918 12.2482C8.53266 12.2482 8.05801 11.8881 7.898 11.352C7.7821 10.9638 7.85065 10.5538 8.08604 10.2273C8.32143 9.90081 8.68342 9.71362 9.07927 9.71362L10.6063 9.71362C10.4761 10.0481 10.4037 10.4123 10.4037 10.7939C10.4037 12.406 11.6821 13.7175 13.2536 13.7175L15.0863 13.7175L12.6382 20.1249C11.7632 19.8639 10.8388 19.7235 9.88283 19.7235C4.43344 19.7235 0 24.2715 0 29.8617C0 35.4519 4.43344 39.9999 9.88283 39.9999L19.6239 39.9999C20.12 39.9999 20.5223 39.5872 20.5223 39.0783C20.5223 38.5693 20.12 38.1566 19.6239 38.1566L15.5585 38.1566C18.101 36.3203 19.7657 33.2868 19.7657 29.8617C19.7657 25.9034 17.5427 22.4683 14.3104 20.7997L15.4784 17.7427L20.9936 26.4783L20.9936 31.1828C20.9936 32.2839 21.8668 33.1797 22.9401 33.1797L24.1109 33.1797C25.0747 33.1797 25.8834 32.471 26.0337 31.4944L26.1431 30.7834L26.2757 30.7834C26.5443 33.8273 28.1297 36.487 30.4416 38.1567L28.0312 38.1567C27.5351 38.1567 27.1328 38.5694 27.1328 39.0783C27.1328 39.5873 27.5351 40 28.0312 40L44.3529 40C44.849 40 45.2513 39.5873 45.2513 39.0783C45.2513 38.5694 44.849 38.1566 44.3529 38.1566ZM20.9935 16.9576L20.9935 23.0871L16.2855 15.6301L17.0163 13.7175L17.4793 13.7175C19.1517 13.7175 20.6116 12.5572 21.0297 10.896L21.052 10.8075C21.1564 10.8511 21.2703 10.8756 21.39 10.8756L24.6939 10.8756L24.2633 11.132C22.2464 12.3331 20.9935 14.5653 20.9935 16.9576ZM28.1742 17.5918L30.42 21.5822C28.7754 22.7765 27.501 24.4731 26.8101 26.4521L28.1742 17.5918ZM9.88274 38.1566C14.3413 38.1566 17.9687 34.4355 17.9687 29.8617C17.9687 26.6831 16.2166 23.9168 13.6511 22.5246L10.7193 30.1979C10.5805 30.5614 10.2414 30.7835 9.88256 30.7835C9.77358 30.7835 9.66271 30.7631 9.55499 30.7197C9.0931 30.5339 8.86526 29.9993 9.04638 29.5253L11.979 21.85C11.3101 21.6657 10.6075 21.5668 9.88274 21.5668C5.42415 21.5668 1.79679 25.2879 1.79679 29.8617C1.79679 34.4355 5.42415 38.1566 9.88274 38.1566ZM36.1172 30.7833L28.0814 30.7833C28.5298 34.925 31.9622 38.1566 36.1172 38.1566C40.5758 38.1566 44.2031 34.4355 44.2031 29.8617C44.2031 25.2879 40.5758 21.5668 36.1172 21.5668C34.9657 21.5668 33.8701 21.8155 32.8777 22.2624L36.8952 29.4009C37.0557 29.686 37.0557 30.0373 36.8952 30.3225C36.7348 30.6077 36.4381 30.7833 36.1172 30.7833ZM28.0814 28.94L34.5611 28.94L31.3229 23.1864C29.5551 24.5261 28.3362 26.586 28.0814 28.94Z" transform="translate(0 6)" id="Shape" fill="#000000" fill-rule="evenodd" stroke="none" />
    <path d="M1.7069 0.293C1.521 0.1069 1.263 0 1 0C0.737 0 0.479 0.1069 0.293 0.293C0.107 0.4791 0 0.737 0 1C0 1.263 0.1069 1.521 0.293 1.7069C0.479 1.8929 0.737 2 1 2C1.263 2 1.521 1.893 1.7069 1.7069C1.8929 1.521 2 1.263 2 1C2 0.737 1.893 0.479 1.7069 0.293Z" transform="translate(22 44)" id="Path" fill="#000000" stroke="none" />
    <path d="M8.11602 1.39062L8.60938 1.88397C10.4635 3.73813 10.4635 6.75521 8.60938 8.60936C7.68235 9.5363 6.46433 10 5.24668 10C4.02866 10 2.8112 9.53658 1.88398 8.60936L1.39062 8.116C-0.46354 6.26185 -0.46354 3.24477 1.39062 1.39062C3.24478 -0.463539 6.26186 -0.463539 8.11602 1.39062ZM3.18252 7.31082C4.32056 8.44904 6.17252 8.44904 7.31074 7.31082C8.44897 6.1726 8.44897 4.32083 7.31074 3.18261L6.81738 2.68925C6.24836 2.12005 5.50066 1.83558 4.75323 1.83558C4.0058 1.83558 3.25818 2.12014 2.68916 2.68925C1.55103 3.82738 1.55103 5.67924 2.68916 6.81746L3.18252 7.31082Z" transform="translate(7 0)" id="Shape" fill="#000000" fill-rule="evenodd" stroke="none" />
    <path d="M1.7069 0.293C1.521 0.107 1.263 0 1 0C0.737 0 0.479 0.1069 0.293 0.293C0.107 0.4791 0 0.737 0 1C0 1.263 0.1069 1.521 0.293 1.7069C0.479 1.893 0.737 2 1 2C1.263 2 1.521 1.893 1.7069 1.7069C1.8929 1.521 2 1.263 2 1C2 0.737 1.893 0.479 1.7069 0.293Z" transform="translate(27 6)" id="Path" fill="#000000" stroke="none" />
    <path d="M5.18181 0L0.818186 0C0.366383 0 0 0.4478 0 1C0 1.5522 0.366383 2 0.818186 2L5.18181 2C5.63362 2 6 1.5522 6 1C6 0.4478 5.63362 0 5.18181 0Z" transform="translate(18 6)" id="Path" fill="#000000" stroke="none" />
  </g>
</svg>