<?xml version="1.0" encoding="utf-8"?>
<svg width="52px" height="57px" viewBox="0 0 52 57" version="1.1" xmlns:xlink="http://www.w3.org/1999/xlink" xmlns="http://www.w3.org/2000/svg">
  <desc>Created with Lunacy</desc>
  <g id="dance" transform="matrix(0.1391731 -0.9902681 -0.9902681 -0.1391731 43.46613 54.26273)">
    <path d="M38.427 16.87C39.0944 16.5692 39.8322 16.4006 40.6085 16.4006C43.5809 16.4006 45.9989 18.8529 45.9989 21.8672C45.9989 24.8815 43.5807 27.3337 40.6084 27.3337C39.6269 27.3337 38.7067 27.065 37.9132 26.5983L37.9132 36.9001C37.9132 39.1608 36.0995 41 33.8703 41C31.6411 41 29.8274 39.1608 29.8274 36.9001L29.8274 26.4353C12.293 21.9895 12.0655 21.9258 11.8341 21.8847C11.8096 21.8804 11.785 21.8763 11.7399 21.8673L4.04287 21.8673C1.81367 21.8673 0 20.0281 0 17.7674C0 15.5067 1.81367 13.6675 4.04278 13.6674C6.46109 13.6674 8.18 13.6659 9.41046 13.6648C12.2565 13.6623 12.4893 13.6621 12.7191 13.6884C12.7453 13.6914 12.7715 13.6947 12.8015 13.6985C13.1287 13.739 13.1167 13.7459 17.5372 14.8667L19.4385 12.9378L15.4562 10.2456C13.597 8.98925 13.096 6.44572 14.3347 4.56037C15.5711 2.67366 18.0806 2.16298 19.9421 3.4235L28.0271 8.88931C29.0393 9.57227 29.6887 10.6689 29.8078 11.8972C29.8798 12.6398 29.7516 13.3729 29.45 14.0297L30.7503 14.2934C33.0259 7.37013 32.655 8.12489 33.4949 6.84725C33.6175 6.66074 33.7779 6.51579 33.9585 6.41356L39.0976 1.20204C40.678 -0.400772 43.2344 -0.40059 44.8147 1.20204C46.3952 2.80477 46.395 5.39722 44.8147 6.99977L40.0992 11.7817L38.427 16.87ZM37.7434 10.3053C37.644 10.6081 35.5465 16.9889 35.2872 17.7781C35.2414 17.9175 35.218 18.0634 35.218 18.2104L35.218 36.9C35.218 37.6536 34.6135 38.2667 33.8704 38.2667C33.1273 38.2667 32.5227 37.6536 32.5227 36.9L32.5227 25.3682C32.5227 24.7411 32.1018 24.1944 31.5019 24.0423C26.3988 22.7485 22.6412 21.7946 19.8719 21.0915C12.2182 19.1484 12.1132 19.1218 12.0118 19.1317C12.0021 19.1327 11.9926 19.1339 11.9766 19.1339L4.04287 19.1339C3.29977 19.1339 2.69522 18.5209 2.69522 17.7673C2.69522 17.0137 3.29977 16.4006 4.04287 16.4006L12.3083 16.4006C12.3204 16.4006 12.3311 16.4005 12.3412 16.4003C12.3513 16.4002 12.3606 16.4001 12.37 16.4001C12.5479 16.4009 12.7254 16.4641 17.624 17.706C18.0833 17.8225 18.5692 17.6858 18.904 17.3463L22.5066 13.6913C23.1074 13.0817 23.0079 12.066 22.301 11.588L16.951 7.97109C16.3341 7.55426 16.1627 6.70739 16.5786 6.07454C16.9895 5.44733 17.824 5.27586 18.4462 5.69716L26.533 11.1643C27.2434 11.6437 27.335 12.6606 26.7372 13.2669L23.7051 16.3417C23.1788 16.8754 23.1788 17.7407 23.7051 18.2744C24.2313 18.8081 25.0847 18.8081 25.611 18.2744L27.4484 16.4111L31.3883 17.2102C31.4771 17.2283 31.5658 17.2369 31.6535 17.2369C32.2231 17.2369 32.7448 16.8689 32.9312 16.3023C35.281 9.15329 35.3031 9.07241 35.3403 8.99926C35.3432 8.99366 35.3461 8.9881 35.3502 8.97941C35.3613 8.95597 35.3701 8.93608 35.3796 8.91656C35.4917 8.68661 35.7063 8.50664 41.0035 3.13477C41.5289 2.60205 42.3836 2.60205 42.909 3.13477C43.4359 3.66922 43.436 4.53259 42.909 5.06713L37.7434 10.3053ZM37.9132 21.8672C37.9132 23.3742 39.1223 24.6004 40.6085 24.6004C42.0947 24.6004 43.3037 23.3742 43.3037 21.8672C43.3037 20.3601 42.0947 19.1339 40.6085 19.1339C39.1224 19.1339 37.9132 20.3601 37.9132 21.8672Z" transform="translate(0.2620445 0.9029214)" id="Shape" fill="#000000" fill-rule="evenodd" stroke="#DAF0E8" stroke-width="1" />
  </g>
</svg>