<?xml version="1.0" encoding="utf-8"?>
<!-- Generator: Adobe Illustrator 23.0.1, SVG Export Plug-In . SVG Version: 6.00 Build 0)  -->
<svg version="1.1" id="Layer_1" xmlns="http://www.w3.org/2000/svg" xmlns:xlink="http://www.w3.org/1999/xlink" x="0px" y="0px"
	 viewBox="0 0 100 100" style="enable-background:new 0 0 100 100;" xml:space="preserve">
<style type="text/css">
	.st0{fill:none;stroke:#676B6C;stroke-width:4.5;stroke-miterlimit:10;}
</style>
<path class="st0" d="M50,90.51l-9.66-0.01c-7.92,0-16.06,0.01-23.98,0.01c-0.89-14,1.41-15.59,1.41-15.59
	c1.5-1.43,3.36-2.46,5.21-3.48c3.23-1.78,6.48-3.54,9.66-5.42c2.72-1.6,6.62-3.31,8.26-6.02c1.08-1.78,1.54-3.86,1.54-5.89
	c0,0-18.09,0-18.09-4.85c0,0,5.17,0,5.17-12.13c0,0,0-9.7,0-9.7c0-6.78,4.69-13.85,11.55-16.24c1.54-0.54,3.28-0.84,4.92-0.56
	c0.83,0.14,1.58,0.44,2.28,0.88c0.55,0.35,1.04,1.27,1.75,1.27c0.72,0.01,1.2-0.93,1.75-1.28c0.7-0.44,1.45-0.73,2.28-0.88
	c1.64-0.28,3.38,0.02,4.92,0.56c6.85,2.38,11.55,9.46,11.55,16.24c0,0.01,0,9.7,0,9.7c0,12.13,5.17,12.13,5.17,12.13
	c0,4.85-18.09,4.85-18.09,4.85c0,2.03,0.46,4.11,1.54,5.89c1.64,2.71,5.54,4.42,8.26,6.02c3.17,1.87,6.42,3.64,9.66,5.42
	c1.84,1.01,3.71,2.05,5.21,3.48c0,0,2.3,1.58,1.41,15.59c-7.92,0-16.06,0-23.98-0.01L50,90.51L50,90.51z"/>
</svg>
