<svg version="1.1" id="Layer_1" xmlns="http://www.w3.org/2000/svg" x="0" y="0" viewBox="0 0 100 100" xml:space="preserve"><style>.st0{fill:none;stroke:#676b6c;stroke-width:4.5;stroke-miterlimit:10}</style><path class="st0" d="M1357.83 161.3s-10.89 22.52-26.21 33.61c0 0-13.57 10.04 7.65 10.53 1.98.05 3.96-.1 5.93-.33 3.42-.4 10.47.14 4.51 13.18l-6.65 20.74 34.52-32.53s8.17-8.61-3.74-9.6l-17.7-1.32c-.01-.01 10.2-27.31 1.69-34.28zM1315.96 164.07l79.4 77.23"/><path class="st0" d="M1357.83 161.3s-10.89 22.52-26.21 33.61c0 0-13.57 10.04 7.65 10.53 1.98.05 3.96-.1 5.93-.33 3.42-.4 10.47.14 4.51 13.18l-6.65 20.74 34.52-32.53s8.17-8.61-3.74-9.6l-17.7-1.32c-.01-.01 10.2-27.31 1.69-34.28zM1315.96 164.07l79.4 77.23"/><g><path class="st0" d="M51.83 13.3S40.94 35.82 25.62 46.91c0 0-13.57 10.04 7.65 10.53 1.98.05 3.96-.1 5.93-.33 3.42-.4 10.47.14 4.51 13.18l-6.65 20.74L71.58 58.5s8.17-8.61-3.74-9.6l-17.7-1.32c-.01-.01 10.2-27.31 1.69-34.28zM9.96 16.07l79.4 77.23"/></g></svg>