<?xml version="1.0" encoding="utf-8"?>
<!-- Generator: Adobe Illustrator 23.0.1, SVG Export Plug-In . SVG Version: 6.00 Build 0)  -->
<svg version="1.1" id="Layer_1" xmlns="http://www.w3.org/2000/svg" xmlns:xlink="http://www.w3.org/1999/xlink" x="0px" y="0px"
	 viewBox="0 0 100 100" style="enable-background:new 0 0 100 100;" xml:space="preserve">
<style type="text/css">
	.st0{fill:none;stroke:#676B6C;stroke-width:4.5;stroke-miterlimit:10;}
</style>
<path class="st0" d="M31.66,45.64c0.3,2.1,1.39,3.92,2.33,5.82c0.99,2.01,1.64,4.27,1.73,6.48c0.15,3.61-1.36,8.05-6.07,8.05h-0.18
	c-8.27,0-14.97,6.09-14.97,13.59v7.93h68c0,0,0-7.93,0-7.93c0-4.01-1.99-7.87-5.38-10.44c-1.64-1.25-3.68-2.37-5.8-2.72
	c-2.27-0.37-4.81-0.3-6.77-1.56c-1.7-1.09-2.8-2.9-3.13-4.74c-0.77-4.37,2.13-7.99,3.45-11.98c0.19-0.57,0.75-0.83,1.34-0.76
	c1.29,0.16,2.5-2.15,3.07-3.13c1.33-2.25,2.16-4.82,1.86-7.39c-0.11-0.92-0.36-1.83-0.89-2.62c-0.36-0.54-0.92-1.05-1.62-1.03
	c-0.86,0.02-1.01,0.04-1.81,1.5c3.16-5.5,5.65-15.64-0.84-20.06c-1.06-0.73-2.77-1.23-4.05-0.77c0.02-0.18,0.04-0.36,0.05-0.53
	c0.05-1.39-0.88-2.71-2.12-3.53c-2.24-1.48-5.64-1.89-8.32-2.15c-7.94-0.77-16.35,1.36-21.24,7.41c-3,3.71-3.45,8.64-2.02,12.97
	l1.86,5.63c0.09,0.28-0.27,0.48-0.46,0.25c-0.48-0.58-1.03-1.01-1.4-0.67c0,0-2.46,0-2.46,5.21c0,2.65,0.99,4.91,2.61,7.07
	c0.28,0.38,0.57,0.76,0.85,1.14c0.2,0.26,0.4,0.54,0.71,0.7c0.69,0.37,1.41-0.13,1.53-0.75c0.08-0.42,0.08-0.85,0.09-1.27"/>
</svg>
