<svg id="Layer_1" data-name="Layer 1" xmlns="http://www.w3.org/2000/svg" viewBox="0 0 61.23 85.43"><defs><style>.cls-1{fill:none;stroke:#686b6b;stroke-miterlimit:10;stroke-width:4.5px;}</style></defs><title>music</title><path class="cls-1" d="M67.5,24.5l-28,11,.09,42.66a9.34,9.34,0,0,1,.48,2.66,9.19,9.19,0,0,1-18.37,0A8.76,8.76,0,0,1,29.09,72l-.21-42,11.23-4.69,28-11.49,9-3.69h0l.36,9.7.45,42a9,9,0,0,1,.48,2.65,9.18,9.18,0,0,1-18.36,0,8.77,8.77,0,0,1,7.39-8.82Z" transform="translate(-19.45 -6.82)"/></svg>