<svg version="1.1" id="Layer_1" xmlns="http://www.w3.org/2000/svg" x="0" y="0" viewBox="0 0 100 100" xml:space="preserve"><style>.st0{fill:none;stroke:#676b6c;stroke-width:4.5;stroke-miterlimit:10}</style><path class="st0" d="M1357.83 161.3s-10.89 22.52-26.21 33.61c0 0-13.57 10.04 7.65 10.53 1.98.05 3.96-.1 5.93-.33 3.42-.4 10.47.14 4.51 13.18l-6.65 20.74 34.52-32.53s8.17-8.61-3.74-9.6l-17.7-1.32c-.01-.01 10.2-27.31 1.69-34.28zM1315.96 164.07l79.4 77.23"/><path class="st0" d="M1357.83 161.3s-10.89 22.52-26.21 33.61c0 0-13.57 10.04 7.65 10.53 1.98.05 3.96-.1 5.93-.33 3.42-.4 10.47.14 4.51 13.18l-6.65 20.74 34.52-32.53s8.17-8.61-3.74-9.6l-17.7-1.32c-.01-.01 10.2-27.31 1.69-34.28zM1315.96 164.07l79.4 77.23"/><g><path class="st0" d="M90.27 81.69l-78.25-.43c-.73 0-1.14-.81-.68-1.37l7.72-9.31a9.961 9.961 0 002.29-6.35l-.04-16.47C21.31 31.88 34.19 20 50.66 20s30.28 11.88 30.28 27.76l.04 18.34c0 2.08.66 4.11 1.89 5.82l8.12 8.45c.4.55-.01 1.32-.72 1.32zM57.84 82.46c0 3.36-.91 9.53-7.02 9.53-5.13 0-6.37-6.17-6.37-9.53"/><path class="st0" d="M56.05 20.35c0-3.36.19-8.36-5.92-8.36-5.13 0-5.31 5-5.31 8.36"/></g></svg>