<svg xmlns="http://www.w3.org/2000/svg" height="512" viewBox="-54 0 512 512.002" width="512"><path d="M374.648 191.035c16.157 0 29.301-13.14 29.301-29.297s-13.144-29.3-29.3-29.3h-43.06c.688-14.223-4.265-27.872-13.198-38.29 1.316-.605 2.62-1.25 3.89-1.984 10.64-6.144 18.254-16.062 21.434-27.93l1.695-6.324c3.18-11.867 1.547-24.265-4.598-34.906S324.75 4.75 312.882 1.57h-.003c-24.492-6.558-49.77 8.028-56.336 32.532l-1.695 6.32c-3.18 11.867-1.547 24.266 4.597 34.906a45.86 45.86 0 001.375 2.223 55.013 55.013 0 00-11.937 5.347 54.807 54.807 0 00-13.281 11.141l-34.043 22.297c-9.973 6.531-13.641 19.152-8.72 30.008l15.946 35.195-8.746 37.516c-.004.015 0 .023-.004.039a10.02 10.02 0 00-.258 2.234v88a9.96 9.96 0 002.16 6.2v38.367H141.41a9.96 9.96 0 00-6.14-2.114H109.5c-17.586 0-31.895 14.309-31.895 31.895v62.168c0 5.52 4.477 10 10 10h8.536c23.597 0 43.359-16.73 48.062-38.95h91.234c21.06 0 38.946-13.773 45.157-32.785l2.18 3.075v60.218a9.95 9.95 0 00-2.805 6.934v25.77c0 17.585 14.308 31.894 31.894 31.894h62.168c5.52 0 10-4.477 10-10v-8.535c0-21.969-14.496-40.613-34.426-46.88v-81.124a96.436 96.436 0 00-4.777-30.012l-12.355-37.793-17.953-76.5 6.003-30.12zM274.168 45.598l1.691-6.32c3.11-11.606 13.645-19.274 25.121-19.274 2.223 0 4.48.285 6.723.887 6.711 1.8 12.317 6.101 15.79 12.117 3.472 6.012 4.394 13.02 2.597 19.726l-1.695 6.325c-1.797 6.707-6.098 12.316-12.114 15.785a25.784 25.784 0 01-18.797 2.824 50.827 50.827 0 00-2.347-.684c-.106-.03-.215-.05-.32-.078-5.938-2.035-10.883-6.09-14.051-11.578-3.473-6.012-4.395-13.02-2.598-19.73zm10.98 50.507c.735.235 1.477.454 2.227.657.16.043.324.07.484.113 16.473 5.438 26.555 22.477 23.121 39.715l-.77 3.922a9.994 9.994 0 009.813 11.926h54.63c5.124 0 9.296 4.171 9.296 9.3 0 5.125-4.172 9.297-9.297 9.297h-74.16c-12.648 0-23.953-8.476-27.492-20.617-1.547-5.3-7.102-8.356-12.398-6.8-5.305 1.546-8.348 7.097-6.801 12.398 5.976 20.504 24.996 34.859 46.328 35.02l-4.043 20.292h-73.711l20.852-89.414c1.199-5.144 3.492-9.828 6.691-13.816.094-.11.187-.223.277-.336a34.706 34.706 0 018.97-7.711c7.886-4.727 17.081-6.11 25.983-3.946zm40.668 245.56a76.427 76.427 0 013.79 23.792v78.875h-26.833V384c0-2.07-.644-4.09-1.84-5.781l-17.996-25.403v-35.125l33.098-5.953zm-106.043-42.337v-68h55.739l-11.078 68zm76.59-68l14.328 61.05-25.609 4.606 10.691-65.656zm-85.308-93.238a4 4 0 011.457-5.024l8.941-5.855-5.207 22.336zM97.605 435.805v-52.13c0-6.562 5.336-11.898 11.895-11.898h15.77v34.934c0 15.57-12.282 28.328-27.665 29.094zm137.832-38.91H145.27v-23h66.667c5.524 0 10-4.477 10-10v-44.567h41v50.067c0 15.164-12.335 27.5-27.5 27.5zM363.997 492h-52.134c-6.558 0-11.894-5.336-11.894-11.895v-15.773h34.93c15.57 0 28.328 12.285 29.097 27.668zm0 0" data-original="#000000" class="active-path" data-old_color="#000000" fill="#4B4848"/><path d="M243.004 492h-122.36c-5.519 0-10 4.48-10 10 0 5.523 4.481 10 10 10h122.36c5.52 0 10-4.477 10-10 0-5.52-4.477-10-10-10zm0 0M86.063 492a10.08 10.08 0 00-7.07 2.93c-1.86 1.86-2.93 4.441-2.93 7.07s1.07 5.21 2.93 7.07c1.859 1.86 4.44 2.93 7.07 2.93s5.21-1.07 7.07-2.93c1.86-1.86 2.93-4.441 2.93-7.07s-1.07-5.21-2.93-7.07a10.087 10.087 0 00-7.07-2.93zm0 0M46.672 231.328a10.1 10.1 0 007.07-2.93c1.86-1.859 2.93-4.441 2.93-7.07s-1.07-5.21-2.93-7.07c-1.86-1.86-4.441-2.93-7.07-2.93s-5.211 1.07-7.07 2.93c-1.872 1.86-2.93 4.441-2.93 7.07s1.058 5.211 2.93 7.07a10.08 10.08 0 007.07 2.93zm0 0M145.27 277.328c0-5.523-4.477-10-10-10H10c-5.52 0-10 4.477-10 10s4.48 10 10 10h125.27c5.523 0 10-4.476 10-10zm0 0M86.668 231.328h67.336c5.52 0 10-4.48 10-10 0-5.523-4.48-10-10-10H86.668c-5.52 0-10 4.477-10 10 0 5.52 4.48 10 10 10zm0 0" data-original="#000000" class="active-path" data-old_color="#000000" fill="#4B4848"/></svg>