<?xml version="1.0"?>
<svg xmlns="http://www.w3.org/2000/svg" height="512px" viewBox="-54 0 512 512.0019" width="512px"><g><path d="m374.648438 191.035156c16.15625 0 29.300781-13.140625 29.300781-29.296875s-13.144531-29.300781-29.300781-29.300781h-43.058594c.6875-14.222656-4.265625-27.871094-13.199219-38.289062 1.316406-.605469 2.621094-1.25 3.890625-1.984376 10.640625-6.144531 18.253906-16.0625 21.433594-27.929687l1.695312-6.324219c3.179688-11.867187 1.546875-24.265625-4.597656-34.90625s-16.0625-18.253906-27.929688-21.433594h-.003906c-24.492187-6.558593-49.769531 8.027344-56.335937 32.53125l-1.695313 6.320313c-3.179687 11.867187-1.546875 24.265625 4.597656 34.90625.4375.757813.898438 1.496094 1.375 2.222656-4.121093 1.285157-8.128906 3.0625-11.9375 5.347657-5.074218 3.039062-9.527343 6.808593-13.28125 11.140624l-34.042968 22.296876c-9.972656 6.53125-13.640625 19.152343-8.71875 30.007812l15.945312 35.195312-8.746094 37.515626c-.003906.015624 0 .023437-.003906.039062-.164062.71875-.257812 1.464844-.257812 2.234375v88c0 2.34375.8125 4.496094 2.160156 6.199219v38.367187h-60.527344c-1.695312-1.320312-3.824218-2.113281-6.140625-2.113281h-25.769531c-17.585938 0-31.894531 14.308594-31.894531 31.894531v62.167969c0 5.519531 4.476562 10 10 10h8.535156c23.597656 0 43.359375-16.730469 48.0625-38.949219h91.234375c21.058594 0 38.945312-13.773437 45.15625-32.785156l2.179688 3.074219v60.21875c-1.734376 1.796875-2.804688 4.238281-2.804688 6.933594v25.769531c0 17.585937 14.308594 31.894531 31.894531 31.894531h62.167969c5.519531 0 10-4.476562 10-10v-8.535156c0-21.96875-14.496094-40.613282-34.425781-46.878906v-81.125c0-10.210938-1.605469-20.308594-4.777344-30.011719l-12.355469-37.792969-17.953125-76.5 6.003907-30.121094zm-100.480469-145.4375 1.691406-6.320312c3.109375-11.605469 13.644531-19.273438 25.121094-19.273438 2.222656 0 4.480469.285156 6.722656.886719 6.710937 1.800781 12.316406 6.101563 15.789063 12.117187 3.472656 6.011719 4.394531 13.019532 2.597656 19.726563l-1.695313 6.324219c-1.796875 6.707031-6.097656 12.316406-12.113281 15.785156-5.738281 3.316406-12.375 4.300781-18.796875 2.824219-.773437-.246094-1.554687-.472657-2.347656-.683594-.105469-.03125-.214844-.050781-.320313-.078125-5.9375-2.035156-10.882812-6.089844-14.050781-11.578125-3.472656-6.011719-4.394531-13.019531-2.597656-19.730469zm10.980469 50.507813c.734374.234375 1.476562.453125 2.226562.65625.160156.042969.324219.070312.484375.113281 16.472656 5.4375 26.554687 22.476562 23.121094 39.714844l-.769531 3.921875c-.578126 2.933593.1875 5.972656 2.089843 8.28125 1.898438 2.308593 4.730469 3.644531 7.722657 3.644531h54.628906c5.125 0 9.296875 4.171875 9.296875 9.300781 0 5.125-4.171875 9.296875-9.296875 9.296875h-62.148438c-.128906 0-.261718 0-.390625 0h-11.621093c-12.648438 0-23.953126-8.476562-27.492188-20.617187-1.546875-5.300781-7.101562-8.355469-12.398438-6.800781-5.304687 1.546874-8.347656 7.097656-6.800781 12.398437 5.976563 20.503906 24.996094 34.859375 46.328125 35.019531l-4.042968 20.292969h-73.710938l20.851562-89.414063c1.199219-5.144531 3.492188-9.828124 6.691407-13.816406.09375-.109375.1875-.222656.277343-.335937 2.488282-3.023438 5.503907-5.632813 8.96875-7.710938 7.886719-4.726562 17.082032-6.109375 25.984376-3.945312zm40.667968 245.558593c2.515625 7.691407 3.789063 15.699219 3.789063 23.792969v78.875h-26.832031v-60.332031c0-2.070312-.644532-4.089844-1.839844-5.78125l-17.996094-25.402344v-35.125l33.097656-5.953125zm-106.042968-42.335937v-68h55.738281l-11.078125 68zm76.589843-68 14.328125 61.050781-25.609375 4.605469 10.691407-65.65625zm-85.308593-93.238281c-.824219-1.816406-.210938-3.929688 1.457031-5.023438l8.941406-5.855468-5.207031 22.335937zm-113.449219 297.714844v-52.128907c0-6.5625 5.335937-11.898437 11.894531-11.898437h15.769531v34.933594c0 15.570312-12.28125 28.328124-27.664062 29.09375zm137.832031-38.910157h-90.167969v-23h66.667969c5.523438 0 10-4.476562 10-10v-44.566406h41v50.066406c0 15.164063-12.335938 27.5-27.5 27.5zm128.558594 95.105469h-52.132813c-6.558593 0-11.894531-5.335938-11.894531-11.894531v-15.773438h34.929688c15.570312 0 28.328124 12.285157 29.097656 27.667969zm0 0" data-original="#000000" class="active-path" data-old_color="#000000" fill="#4B4848"/><path d="m243.003906 492h-122.359375c-5.519531 0-10 4.480469-10 10 0 5.523438 4.480469 10 10 10h122.359375c5.519532 0 10-4.476562 10-10 0-5.519531-4.476562-10-10-10zm0 0" data-original="#000000" class="active-path" data-old_color="#000000" fill="#4B4848"/><path d="m86.0625 492c-2.628906 0-5.210938 1.070312-7.070312 2.929688-1.859376 1.859374-2.929688 4.441406-2.929688 7.070312s1.070312 5.210938 2.929688 7.070312c1.859374 1.859376 4.441406 2.929688 7.070312 2.929688s5.210938-1.070312 7.070312-2.929688c1.859376-1.859374 2.929688-4.441406 2.929688-7.070312s-1.070312-5.210938-2.929688-7.070312c-1.863281-1.859376-4.441406-2.929688-7.070312-2.929688zm0 0" data-original="#000000" class="active-path" data-old_color="#000000" fill="#4B4848"/><path d="m46.671875 231.328125c2.628906 0 5.199219-1.070313 7.070313-2.929687 1.859374-1.859376 2.929687-4.441407 2.929687-7.070313s-1.070313-5.210937-2.929687-7.070313c-1.859376-1.859374-4.441407-2.929687-7.070313-2.929687s-5.210937 1.070313-7.070313 2.929687c-1.871093 1.859376-2.929687 4.441407-2.929687 7.070313s1.058594 5.210937 2.929687 7.070313c1.859376 1.859374 4.441407 2.929687 7.070313 2.929687zm0 0" data-original="#000000" class="active-path" data-old_color="#000000" fill="#4B4848"/><path d="m145.269531 277.328125c0-5.523437-4.476562-10-10-10h-125.269531c-5.519531 0-10 4.476563-10 10s4.480469 10 10 10h125.269531c5.523438 0 10-4.476563 10-10zm0 0" data-original="#000000" class="active-path" data-old_color="#000000" fill="#4B4848"/><path d="m86.667969 231.328125h67.335937c5.519532 0 10-4.480469 10-10 0-5.523437-4.480468-10-10-10h-67.335937c-5.519531 0-10 4.476563-10 10 0 5.519531 4.480469 10 10 10zm0 0" data-original="#000000" class="active-path" data-old_color="#000000" fill="#4B4848"/></g> </svg>
