<?xml version="1.0" encoding="utf-8"?>
<svg width="39px" height="49px" viewBox="0 0 39 49" version="1.1" xmlns:xlink="http://www.w3.org/1999/xlink" xmlns="http://www.w3.org/2000/svg">
  <desc>Created with Lunacy</desc>
  <g id="run">
    <path d="M29.1269 18.2827C30.7111 18.2827 32 17.0251 32 15.4789C32 13.9327 30.7111 12.6747 29.1269 12.6747L24.9047 12.6747C24.9721 11.3135 24.4865 10.0073 23.6105 9.01031C23.7395 8.95236 23.8675 8.89068 23.992 8.8204C25.0353 8.23235 25.7819 7.28317 26.0937 6.14744L26.2599 5.54219C26.5717 4.40647 26.4116 3.2199 25.8091 2.20156C25.2066 1.18322 24.234 0.454603 23.0704 0.150297L23.07 0.150297C20.6684 -0.47738 18.1898 0.918539 17.5459 3.26364L17.3797 3.86851C17.0679 5.00424 17.228 6.19081 17.8305 7.20915C17.8734 7.28167 17.9186 7.35233 17.9653 7.42186C17.5612 7.54486 17.1682 7.71495 16.7948 7.93365C16.2972 8.2245 15.8606 8.58525 15.4925 8.99984L12.1544 11.1337C11.1765 11.7588 10.8168 12.9667 11.2994 14.0056L12.863 17.3739L12.0054 20.9642L12.005 20.968C11.9889 21.0368 11.9797 21.1082 11.9797 21.1818L11.9797 29.6037C11.9797 29.828 12.0594 30.034 12.1915 30.197L12.1915 33.8688L6.25644 33.8688C6.0902 33.7425 5.88145 33.6666 5.65431 33.6666L3.12745 33.6666C1.40305 33.6666 0 35.0359 0 36.719L0 42.6686C0 43.1969 0.438954 43.6257 0.980561 43.6257L1.81749 43.6257C4.13138 43.6257 6.06914 42.0245 6.53031 39.8981L15.4764 39.8981C17.5413 39.8981 19.2952 38.58 19.9042 36.7605L20.118 37.0547L20.118 42.8178C19.9479 42.9898 19.843 43.2234 19.843 43.4814L19.843 45.9476C19.843 47.6306 21.246 49 22.9704 49L29.0664 49C29.6076 49 30.0469 48.5716 30.0469 48.043L30.0469 47.2261C30.0469 45.1236 28.6255 43.3393 26.6713 42.7397L26.6713 34.9758C26.6713 33.9985 26.5138 33.0322 26.2028 32.1035L24.9913 28.4866L23.2309 21.1654L23.8196 18.2827L29.1269 18.2827ZM19.44 3.75898L19.2742 4.36385C19.098 5.00611 19.1884 5.67678 19.5289 6.25212C19.8395 6.77736 20.3244 7.16541 20.9066 7.36018C20.917 7.3628 20.9277 7.36467 20.938 7.36766C21.0158 7.38784 21.0924 7.40953 21.1682 7.43308C21.798 7.57439 22.4487 7.48018 23.0114 7.16279C23.6013 6.83082 24.023 6.29399 24.1992 5.6521L24.3654 5.04686C24.5416 4.40497 24.4512 3.7343 24.1107 3.15896C23.7702 2.58325 23.2205 2.17165 22.5625 1.99931C22.3426 1.94174 22.1212 1.91445 21.9033 1.91445C20.7779 1.91445 19.7449 2.6483 19.44 3.75898ZM20.3509 9.1976C20.4229 9.22003 20.4956 9.24097 20.5692 9.26041C20.5849 9.26452 20.601 9.26714 20.6167 9.27125C22.2319 9.79164 23.2205 11.4223 22.8838 13.0721L22.8084 13.4474C22.7517 13.7282 22.8268 14.019 23.0133 14.24C23.1995 14.4609 23.4772 14.5888 23.7706 14.5888L29.1273 14.5888C29.6298 14.5888 30.0389 14.988 30.0389 15.4789C30.0389 15.9693 29.6298 16.3686 29.1273 16.3686L21.8554 16.3686C20.6151 16.3686 19.5067 15.5574 19.1596 14.3955C19.0079 13.8882 18.4633 13.5958 17.9439 13.7446C17.4237 13.8927 17.1253 14.4239 17.277 14.9312C17.8631 16.8935 19.728 18.2673 21.8198 18.2827L21.4233 20.2248L14.1955 20.2248L16.2402 11.6676C16.3578 11.1752 16.5826 10.727 16.8963 10.3453C16.9055 10.3348 16.9147 10.324 16.9235 10.3131C17.1675 10.0238 17.4632 9.77407 17.8029 9.57518C18.5763 9.12284 19.4779 8.9905 20.3509 9.1976ZM13.0855 13.2156C13.0047 13.0418 13.0648 12.8396 13.2284 12.7349L14.1051 12.1745L13.5946 14.3121L13.0855 13.2156ZM13.9404 28.6466L13.9404 22.1388L19.4059 22.1388L18.3196 28.6466L13.9404 28.6466ZM22.8555 27.9816L21.4505 22.1388L21.3927 22.1388L20.3443 28.4223L22.8555 27.9816ZM24.7101 34.9754C24.7101 34.2008 24.5853 33.4344 24.3386 32.6983L23.3795 29.8343L20.1341 30.4041L20.1341 33.7656L21.8987 36.1967C22.0159 36.3586 22.0791 36.5519 22.0791 36.75L22.0791 42.524L24.7101 42.524L24.7101 34.9754ZM15.4764 37.9841L6.63487 37.9841L6.63487 35.7829L13.1721 35.7829C13.7137 35.7829 14.1526 35.3545 14.1526 34.8258L14.1526 30.5607L18.1729 30.5607L18.1729 35.3522C18.1729 36.8035 16.9633 37.9841 15.4764 37.9841ZM1.96112 36.719L1.96112 41.7079C3.4695 41.6346 4.67375 40.4136 4.67375 38.9235L4.67375 35.5803L3.12745 35.5803C2.48434 35.5803 1.96112 36.0909 1.96112 36.719ZM22.9704 47.0859L28.0824 47.0859C28.0069 45.6138 26.7559 44.438 25.2291 44.438L21.8041 44.438L21.8041 45.9476C21.8041 46.5753 22.3273 47.0859 22.9704 47.0859Z" transform="translate(7 2.775558E-17)" id="Shape" fill="#000000" fill-rule="evenodd" stroke="none" />
    <path d="M13.0166 0L0.983427 0C0.440621 0 0 0.448047 0 1C0 1.55234 0.440621 2 0.983427 2L13.0166 2C13.5594 2 14 1.55234 14 1C14 0.448047 13.5598 0 13.0166 0Z" transform="translate(10 47)" id="Path" fill="#000000" stroke="none" />
    <path d="M1 0C0.737109 0 0.478906 0.107031 0.292969 0.292969C0.107031 0.478906 0 0.737109 0 1C0 1.26289 0.107031 1.52109 0.292969 1.70703C0.478906 1.89297 0.737109 2 1 2C1.26289 2 1.52109 1.89297 1.70703 1.70703C1.89297 1.52109 2 1.26289 2 1C2 0.737109 1.89297 0.478906 1.70703 0.292969C1.5207 0.107031 1.26289 0 1 0Z" transform="translate(7 47)" id="Path" fill="#000000" stroke="none" />
    <path d="M1 2C1.26289 2 1.51992 1.89297 1.70703 1.70703C1.89297 1.52109 2 1.26289 2 1C2 0.737109 1.89297 0.478906 1.70703 0.292969C1.52109 0.107031 1.26289 0 1 0C0.737109 0 0.478906 0.107031 0.292969 0.292969C0.105859 0.478906 0 0.737109 0 1C0 1.26289 0.105859 1.52109 0.292969 1.70703C0.478906 1.89297 0.737109 2 1 2Z" transform="translate(4 20)" id="Path" fill="#000000" stroke="none" />
    <path d="M14 1C14 0.447656 13.5686 0 13.0363 0L0.963726 0C0.431794 0 0 0.447656 0 1C0 1.55234 0.431794 2 0.963726 2L13.0363 2C13.5686 2 14 1.55234 14 1Z" transform="translate(0 25)" id="Path" fill="#000000" stroke="none" />
    <path d="M0.916003 2L7.084 2C7.58959 2 8 1.55195 8 1C8 0.447656 7.58959 0 7.084 0L0.916003 0C0.410412 0 0 0.447656 0 1C0 1.55195 0.410412 2 0.916003 2Z" transform="translate(8 20)" id="Path" fill="#000000" stroke="none" />
  </g>
</svg>