<?xml version="1.0" encoding="utf-8"?>
<svg width="135px" height="88px" viewBox="0 0 135 88" version="1.1" xmlns:xlink="http://www.w3.org/1999/xlink" xmlns="http://www.w3.org/2000/svg">
  <desc>Created with Lunacy</desc>
  <g id="Group">
    <path d="M28.2649 0.109143C33.4655 0.18091 38.7049 0.139067 43.871 0.480661C45.7051 0.601626 47.5815 0.608981 49.3739 0.914817C50.0669 1.03325 52.7991 1.29191 52.9847 1.80367C53.1434 2.24112 52.0273 2.34408 51.5398 2.40901C44.8756 3.29735 38.1746 2.94054 31.4245 2.86878C26.1437 2.81248 20.87 2.70039 15.5859 2.70013C12.3423 2.69988 9.00977 2.73944 5.77881 2.57207C4.78957 2.52059 3.83436 2.48356 2.85966 2.36894C2.2278 2.29463 0.899842 2.26699 0.37887 2.01669C-1.22412 1.24703 2.73779 0.573477 3.38448 0.486747C5.25454 0.235941 7.1839 0.212356 9.0847 0.0974774C12.1106 -0.0853654 15.1999 0.0447294 18.2399 0.0467582C21.5817 0.0492941 24.9238 0.0629883 28.2649 0.109143" transform="translate(82 73.36)" id="Fill-4" fill="#DFE6E4" stroke="none" />
    <path d="M31.9984 0.109326C37.8856 0.18084 43.8169 0.13925 49.6652 0.480588C51.7416 0.601553 53.8658 0.608907 55.8952 0.914742C56.6795 1.03292 59.7727 1.29209 59.9826 1.80359C60.1624 2.24129 58.8988 2.344 58.3471 2.40892C50.8027 3.29751 43.2167 2.94045 35.5748 2.86869C29.5966 2.81239 23.6264 2.7003 17.6444 2.70005C13.9724 2.69979 10.1998 2.73961 6.54235 2.57198C5.42202 2.52076 4.34089 2.48348 3.23729 2.36911C2.52201 2.2948 1.01884 2.26716 0.428807 2.01686C-1.38569 1.24695 3.09971 0.573658 3.83143 0.486675C5.94875 0.23587 8.13267 0.212539 10.2848 0.0976609C13.7102 -0.0854342 17.2076 0.0446597 20.6486 0.0469421C24.4321 0.0489708 28.2157 0.0629185 31.9984 0.109326" transform="translate(32 84.36)" id="Fill-5" fill="#DFE6E4" stroke="none" />
    <path d="M31.9984 0.109149C37.8856 0.18092 43.8172 0.139075 49.6652 0.480434C51.7419 0.601659 53.8661 0.609014 55.8949 0.914868C56.6798 1.03305 59.7727 1.29199 59.9826 1.80377C60.1624 2.24125 58.8988 2.34421 58.3474 2.40888C50.8025 3.29753 43.2167 2.94045 35.5751 2.86868C29.5969 2.81263 23.6264 2.70054 17.6444 2.70003C13.9727 2.69977 10.2001 2.73959 6.54233 2.57195C5.42228 2.52073 4.34115 2.4837 3.23727 2.36907C2.52199 2.29476 1.01882 2.26712 0.428788 2.01706C-1.38571 1.2471 3.09997 0.573509 3.83141 0.486774C5.94873 0.2357 8.13265 0.212368 10.2851 0.0974827C13.7101 -0.0853701 17.2076 0.0447318 20.6489 0.0467607C24.4324 0.0490432 28.2157 0.0629917 31.9984 0.109149" transform="translate(0 75.36)" id="Fill-6" fill="#DFE6E4" stroke="none" />
    <path d="M37.961 3.58744C37.2823 1.28872 35.4402 0.522485 35.4402 0.522485C35.4402 0.522485 29.6716 -2.54219 24.3876 6.17312C21.4827 10.9651 18.8396 14.7377 17.843 17.2686C16.5295 17.2523 14.988 17.3327 13.3414 17.6163C11.3882 17.9504 8.75842 18.4682 6.34926 19.0762C2.86058 19.955 -0.164092 21.0172 0.00691653 21.9857C0.200485 23.0818 4.13005 23.0969 7.62988 22.9093C9.34748 22.8116 10.9626 22.6688 11.985 22.5789C14.7886 22.331 20.9939 22.5062 22.4349 20.8164C23.266 20.2488 24.2748 19.3615 25.5509 18.0491C30.3018 13.1645 38.6395 5.88588 37.961 3.58744" transform="translate(5 37.36)" id="Fill-7" fill="#EAB097" stroke="none" />
    <path d="M5.3054 0C5.3054 0 0.0319102 9.48702 0.000340558 9.6853C-0.0315012 9.88357 2.16939 13.5813 6.66344 15.9988C6.89504 16.1236 15 6.67727 15 6.67727L11.4002 0.56178L5.3054 0" transform="translate(29 35.36)" id="Fill-8" fill="#E36960" stroke="none" />
    <path d="M16.5852 2.90987C15.8108 2.232 15.4791 2.44471 15.337 2.05507C15.1949 1.66571 15.101 1.31156 14.8465 1.28705C14.592 1.26282 13.0799 3.09666 13.1391 3.81594C13.1984 4.53522 13.5548 5.09081 13.2067 5.50243C12.9757 5.77544 9.79585 8.33504 7.63844 10.23C6.12078 5.77487 2.78885 -0.52369 1.27894 0.0347174C-0.841914 0.819361 0.314889 4.80766 0.314889 4.80766C0.314889 4.80766 1.98598 8.46914 3.65707 11.2806C4.43252 12.5856 6.06761 15.4842 7.94059 14.9306C8.63102 14.7266 9.0265 14.0287 9.46435 13.4945C9.95648 12.8941 10.4461 12.2923 10.9327 11.6877C11.861 10.5343 12.8101 9.38451 13.6523 8.16374C14.8781 6.38681 15.3439 5.83376 16.1495 5.24492C16.9555 4.65609 17.3592 3.58801 16.5852 2.90987" transform="translate(39 16.36)" id="Fill-9" fill="#EAB097" stroke="none" />
    <path d="M21.2086 16.6505C20.0762 14.2583 17.8801 12.451 16.0398 10.5723C14.6474 9.15073 13.2728 7.71193 11.8747 6.29674C9.83035 4.22783 7.41377 1.24249 4.63016 0.186369C4.29284 0.058346 3.91301 -0.0666219 3.5528 0.0405728C1.27627 0.717066 0.517423 2.55382 0.517423 2.55382C0.517423 2.55382 -2.51768 8.30595 6.11379 13.5743C10.9358 16.5177 14.7166 19.1923 17.2231 20.1479C16.9398 21.5342 16.7068 23.2488 16.7068 25.1433C16.7068 27.1403 16.7697 29.8496 16.9632 32.3464C17.2346 35.8891 17.7665 39 18.7294 39C19.7591 39 20.4171 35.6239 20.8261 32.3464C21.0716 30.3986 21.2274 28.4855 21.3206 27.3333C21.5443 24.5948 22.2484 21.79 21.9092 19.0346C21.8029 18.1726 21.5558 17.3842 21.2086 16.6505" transform="translate(31 36.36)" id="Fill-10" fill="#EAB097" stroke="none" />
    <path d="M3.07962 0C3.07962 0 -0.782079 2.58187 0.143188 6.85312C1.06901 11.1241 6.84532 14.4391 7.77087 14.949C8.50607 15.3541 10.1289 13.2307 10.2969 12.6866C10.5381 11.907 10.2004 10.9889 9.92093 10.2593C10.2458 11.1076 12.277 11.0859 12.815 10.5681C13.5956 9.81736 14.2887 8.80675 15 7.96069L10.9249 0.446381L3.07962 0" transform="translate(30 35.36)" id="Fill-11" fill="#E77D72" stroke="none" />
    <path d="M7.38724 0C7.42391 0.148922 8.05715 2.66932 7.99582 4.33638C7.93449 6.05549 7.4157 7.17082 6.34525 7.50105C5.27069 7.83128 4.84579 7.71446 4.44525 9.09958C4.04911 10.4887 3.95492 11 3.95492 11L0 9.67127L0.710994 9.03914C1.4258 7.80699 2.05522 5.63273 2.08779 5.51186C-0.571905 3.7326 1.2339 2.31509 1.81402 2.16212C2.23187 2.05195 2.26063 2.77805 2.37242 3.01922C2.71809 3.76441 3.41031 3.19648 3.76536 2.77429C4.07406 2.40762 4.41738 2.07826 4.71199 1.69627C4.98077 1.34724 5.16417 0.827892 5.54241 0.592508C5.90832 0.364643 6.31502 0.281651 6.74168 0.23336C7.01516 0.201262 7.2279 0.120584 7.38724 0" transform="translate(39 4.36)" id="Fill-12" fill="#EAB097" stroke="none" />
    <path d="M26.6666 2.88287C26.5151 2.99496 26.3129 3.06995 26.053 3.09979C25.5751 3.15274 24.8857 3.23392 24.7571 3.79893C24.6944 4.07444 24.8556 4.31475 24.7362 4.59483C24.6433 4.81256 24.4749 4.90717 24.2842 5.04695C23.9609 5.28295 23.8399 5.49718 23.7038 5.86839C23.5702 6.2318 23.5382 6.85622 23.2247 7.13227C23.0568 7.28011 22.783 7.28791 22.5652 7.36559C22.1907 7.49972 21.9252 7.76045 21.7922 8.12628C21.7344 8.28514 21.6929 8.44857 21.6374 8.6085C21.5501 8.8601 21.4458 9.17889 21.257 9.37699C20.8465 9.80787 20.3016 9.52537 19.8306 9.35979C19.359 9.19421 19.0124 8.86735 18.4956 8.85311C18.0249 8.84021 17.5374 8.92756 17.0946 9.07782C16.2535 9.36328 15.4964 9.84067 14.5856 9.89658C13.5236 9.96163 12.6237 9.656 11.6109 9.42107C10.5286 9.16975 9.38603 9.26114 8.33998 9.60359C6.16563 10.3154 3.56878 9.99281 1.44573 9.23587C1.09854 9.11196 0.751903 8.96143 0.485581 8.71333C-0.0543135 8.21095 -0.0855471 7.19651 0.109663 6.54119C0.344751 5.7512 0.94516 5.10823 1.57374 4.57924C2.23382 4.02364 2.92877 3.79113 3.79578 3.69678C4.75342 3.59249 5.68067 3.64706 6.41996 2.96001C7.1202 2.30953 7.68017 1.78645 8.71953 1.71495C9.73211 1.64533 10.4605 2.39662 11.4173 2.49231C13.1862 2.66944 13.8463 0.588152 15.3659 0.111307C17.2438 -0.478164 18.9017 1.46954 20.7294 1.38943C22.0105 1.33326 25.3269 -0.014221 26.2862 0.858024C27.0469 1.54668 27.241 2.46355 26.6666 2.88287" transform="translate(19 2.36)" id="Fill-13" fill="#504E7B" stroke="none" />
    <path d="M2 0.094985C1.92506 0.246918 1.87047 0.666523 1.62942 0.699367C1.41877 0.72819 1.33765 0.482862 1.25756 0.361539C1.12261 0.157322 0.903975 -0.0292429 0.607564 0.00382499C0.169 0.0532033 0.046418 0.513919 0.00444147 0.835884C-0.03702 1.15718 0.216642 1.7877 0.563012 1.9345C0.918396 2.08509 1.38143 1.96332 1.61294 1.699C1.91476 1.3538 1.89261 1.01061 1.98455 0.618038" transform="translate(41 7.36)" id="Fill-14" fill="#EAB097" stroke="none" />
    <path d="M10.379 15.3361C10.1642 17.3078 8.78333 26.0124 8.75594 26C7.99944 25.6606 0 22.9657 0 22.9657C0 22.9657 3.15085 15.9862 3.36783 13.41C3.53245 11.4835 2.85948 9.88215 2.4443 7.56065C2.33581 6.96143 2.24612 6.3116 2.18999 5.59484C2.17522 5.37973 2.16018 5.15647 2.15266 4.92561C1.99932 1.01032 5.98562 0 5.98562 0C7.66806 0.195708 8.13533 0.489552 10.0385 2.57627C11.9385 4.6672 12.9034 6.21093 12.9971 8.26643C13.0905 10.3222 10.911 10.4507 10.379 15.3361" transform="translate(33 13.36)" id="Fill-15" fill="#EAB097" stroke="none" />
    <path d="M4 0L0.285434 3C0.163665 2.35241 0.0629945 1.65012 0 0.875506L4 0" transform="translate(35 17.36)" id="Fill-16" fill="#D59984" stroke="none" />
    <path d="M10.1994 0.299296C10.1994 0.299296 14.1816 -0.800109 14.9654 1.21529C15.1941 1.80368 14.27 2.68415 12.7934 3.61725C9.21425 5.87921 2.38909 8.45142 0.864107 7.9325C-1.29045 7.19965 0.929371 5.06242 3.73657 3.47462C6.54377 1.88683 10.1994 0.299296 10.1994 0.299296" transform="translate(27 14.36)" id="Fill-17" fill="#EAB097" stroke="none" />
    <path d="M15.444 6.62554C15.1493 5.93577 14.8474 5.37239 14.8474 5.37239C14.8474 5.37239 12.3954 5.66756 11.7583 4.81293L11.7548 4.809C11.5597 4.47956 11.3865 4.13075 11.2135 3.78979C10.9372 3.24579 10.6245 2.75514 10.4035 2.18811C10.1938 1.64775 9.9102 1.13435 9.5864 0.655224C9.52353 0.563386 9.26962 0.0842551 9.1517 0.0690892C9.14819 0.0690892 8.59584 0 8.59584 0C8.59584 0 10.2966 1.77048 10.2966 4.41441C10.2966 7.05075 5.32275 9.39613 5.32275 9.39613C5.32275 9.39613 6.1989 11.2739 5.74234 14.0672C5.70726 14.2838 5.66193 14.5087 5.61147 14.7376C3.90207 20.4605 0 26 0 26C0 26 2.91502 25.0106 5.20537 24.9207C7.49572 24.8308 11.475 26 11.475 26C11.475 26 11.6884 24.5668 11.9904 22.6357C12.0198 22.4478 12.0494 22.2599 12.0748 22.0644C12.4947 19.1869 13.0101 15.715 13.2677 14.8491C13.2715 14.8413 13.2715 14.8376 13.2715 14.8297C13.4777 13.7032 13.6544 12.8641 13.7613 12.5728C14.2362 11.27 15.7934 9.71798 15.9812 8.77545C16.0808 8.28087 15.7678 7.37653 15.444 6.62554" transform="translate(30 13.36)" id="Fill-18" fill="#504E7B" stroke="none" />
    <path d="M0.000857085 2.38844C0.000857085 2.38844 3.47266 7.70573 4.82051 9.41651C6.16865 11.1273 6.5654 11.7438 6.90437 12.709C7.24306 13.6743 8.14329 14.3708 8.99265 13.7855C9.84228 13.2005 9.73113 12.8108 10.1376 12.7764C10.5437 12.742 10.9037 12.7457 10.9955 12.4988C11.087 12.2519 9.76238 10.2398 9.06702 10.101C8.37139 9.96221 7.75041 10.1647 7.4554 9.70442C7.16067 9.24446 3.76711 0.678516 3.14862 0.337278C2.52985 -0.00367414 -0.0538866 -0.777913 0.000857085 2.38844" transform="translate(27 19.36)" id="Fill-19" fill="#EAB097" stroke="none" />
    <path d="M4 0C3.5765 3.44814 2.89511 7 1.82888 7C0.83177 7 0.281019 3.72716 0 0L4 0" transform="translate(48 68.36)" id="Fill-20" fill="#E9EDEB" stroke="none" />
    <path d="M8 3.90755C4.3304 4.09883 0.21021 4.0834 0.00725205 2.966C-0.172052 1.97874 2.99935 0.89583 6.65727 0L8 3.90755" transform="translate(5 56.36)" id="Fill-21" fill="#E9EDEB" stroke="none" />
    <path d="M5 2.31948C5 2.31948 4.39164 8.7068 3.54141 8.98138C3.45804 9.00679 3.37039 9.00679 3.2748 8.97767C1.98326 8.62021 -0.146291 3.44666 0.00793591 1.83546C0.0619917 1.28604 0.478862 0.903168 1.02461 0.632297C2.19551 0.0505732 3.95828 0 3.95828 0L5 2.31948" transform="translate(3 58.36)" id="Fill-22" fill="#504E7B" stroke="none" />
    <path d="M3 9C1.81684 8.61451 -0.134015 3.03512 0.00726999 1.29754C0.0567898 0.705026 0.43868 0.292119 0.938634 0C1.01109 1.44946 1.37004 4.57796 3 9" transform="translate(3 58.36)" id="Fill-23" fill="#E77D72" stroke="none" />
    <path d="M9 3.97404C9 5.2765 2.53694 5.24377 0.9022 4.40819C0.552174 4.22774 0.325816 3.92059 0.190278 3.55189C0.186413 3.55189 0.186413 3.55189 0.186413 3.55189C-0.314334 2.2164 0.352317 0.0453369 0.352317 0.0453369L2.94742 0C2.94742 0 8.87964 3.01926 8.99641 3.94521C9 3.95752 9 3.96563 9 3.97404" transform="translate(49 72.36)" id="Fill-24" fill="#504E7B" stroke="none" />
    <path d="M9 0.291514C9 1.19094 2.39735 1.16834 0.727298 0.591321C0.369712 0.466713 0.138466 0.254608 0 0C1.69318 0.223301 5.91794 0.696026 8.99633 0.27161C9 0.280111 9 0.285709 9 0.291514" transform="translate(49 76.36)" id="Fill-25" fill="#E77D72" stroke="none" />
    <path d="M8.79378 5.00221C8.59865 6.17407 7.85017 7.85569 7.14129 7.72494C6.42459 7.59279 5.53256 7.36445 4.90925 8.68061C4.28957 9.9976 3.69915 11 3.69915 11L0 9.0422L0.808405 8.52221C1.43255 7.75811 2.58634 5.06828 2.58634 5.06828C2.10353 4.61491 1.54851 4.00507 1.52705 3.30483C1.51172 2.80695 1.82086 2.48185 2.15287 2.1584C2.23008 2.08321 2.33183 2.03124 2.42828 1.97954C2.77701 1.79349 3.04797 1.63454 3.44464 1.76613C3.9269 1.92619 4.32999 2.31626 4.85879 2.31515C5.17686 2.3146 5.47067 2.18467 5.74024 2.02599C6.00785 1.86814 6.12716 1.68762 6.30696 1.446C6.52439 1.15435 6.66154 0.802157 6.90239 0.527092C7.20094 0.18651 7.59817 0.0670851 8.04475 0.00764904C8.28197 -0.0238659 8.52728 0.0419284 8.70346 0.206414C8.82695 0.321416 9.24871 2.27009 8.79378 5.00221" transform="translate(110 7.36)" id="Fill-26" fill="#F5C3A9" stroke="none" />
    <path d="M13.0761 0.149562C13.0761 0.149562 7.32876 -1.64413 4.08414 7.1919C1.3347 14.6797 -1.28048 19.8627 0.685434 21.1134C2.65135 22.3636 3.78246 23.0511 7.21686 17.7912C10.651 12.531 16.9057 4.47572 15.8898 2.50227C14.8737 0.529095 13.0761 0.149562 13.0761 0.149562" transform="translate(95 36.36)" id="Fill-27" fill="#F5C3A9" stroke="none" />
    <path d="M4.3869 1.28168C4.3869 1.28168 1.04381 7.11549 0.00032243 10.608C-0.0536653 10.7894 6.68982 15.1049 6.91795 14.998C7.14609 14.8914 12 6.71859 12 6.71859L9.235 0L4.3869 1.28168" transform="translate(98 34.36)" id="Fill-28" fill="#9E9CC2" stroke="none" />
    <path d="M0.569461 2.36748C0.569461 2.36748 -2.49826 7.28479 5.60668 11.9065C12.475 15.8234 17.0957 19.1998 18.6988 17.5885C20.3018 15.9772 21.1926 15.0444 16.6503 10.8891C12.108 6.73351 5.33927 -0.559461 3.20197 0.0341187C1.06438 0.627698 0.569461 2.36748 0.569461 2.36748" transform="translate(101 34.36)" id="Fill-29" fill="#F5C3A9" stroke="none" />
    <path d="M19.9847 2.20452C19.8357 4.21451 13.3897 4.5463 10.6673 5.00765C9.78253 5.15823 8.38886 5.39475 6.89829 5.59777C4.90813 5.87115 2.74331 6.0895 1.37894 5.96332C0.620376 5.8927 0.108463 5.71746 0.0142927 5.38566C-0.0730337 5.07827 0.244517 4.72804 0.837734 4.356C1.91658 3.67683 3.90346 2.92341 6.01326 2.24735C7.76991 1.6819 9.61089 1.16863 11.0886 0.787501L11.0919 0.787501C11.2216 0.75375 11.3481 0.71974 11.4743 0.689104C15.6386 -0.362104 19.1552 0.1021 19.1552 0.1021C19.1552 0.1021 19.5116 0.13585 19.7613 0.60317C19.9266 0.910562 20.0432 1.4054 19.9847 2.20452" transform="translate(100 49.36)" id="Fill-30" fill="#F5C3A9" stroke="none" />
    <path d="M6 3.57126C4.08701 3.86266 2.00614 4.0954 0.694676 3.9609L0 3.31556L0.174458 2.24764C1.21147 1.5237 3.12131 0.720617 5.14929 0L6 3.57126" transform="translate(101 51.36)" id="Fill-31" fill="#ADAAC9" stroke="none" />
    <path d="M2.10624 1.71477C2.10624 1.71477 -0.99429 4.57532 0.328324 8.06254C1.65122 11.5498 7.08441 13.6672 7.95228 13.9885C8.82043 14.31 13 7.78788 13 7.78788L10.4207 5.25886L6.2266 0L2.10624 1.71477" transform="translate(100 34.36)" id="Fill-32" fill="#ADAAC9" stroke="none" />
    <path d="M7.82956 9.574C7.19318 10.3889 6.12767 11.7532 4.9857 13.0916C3.09492 15.2997 0.989862 17.4369 0.225392 16.9227C-0.507461 16.4344 0.650728 13.7964 2.20237 10.9837C3.25787 9.07644 4.49308 7.08813 5.44292 5.63969C7.79146 2.05739 10.7121 0.0950147 10.7121 0.0950147C10.7121 0.0950147 11.496 -0.480371 12.7755 1.20073C14.055 2.88183 9.52199 7.40818 7.82956 9.574" transform="translate(87 53.36)" id="Fill-33" fill="#F5C3A9" stroke="none" />
    <path d="M5 2.1022C3.1038 4.30435 0.992702 6.43569 0.226039 5.92288C-0.508917 5.43593 0.652595 2.80511 2.20869 0L5 2.1022" transform="translate(87 64.36)" id="Fill-34" fill="#ADAAC9" stroke="none" />
    <path d="M1.25248 5C1.25248 5 6.45375 4.27279 8.21528 3.85144C9.97654 3.42978 10.5776 3.34991 11.4111 3.45443C12.2444 3.55925 13.0954 3.10226 12.9913 2.18204C12.8872 1.26212 12.5606 1.19947 12.6901 0.855907C12.8194 0.512347 12.9592 0.221643 12.8139 0.0500117C12.6685 -0.121323 10.696 0.162552 10.3301 0.672695C9.96408 1.18284 9.87577 1.76692 9.42784 1.82512C8.97991 1.88362 1.43685 1.26925 0.952657 1.63745C0.468464 2.00536 -1.07935 3.79888 1.25248 5" transform="translate(112 26.36)" id="Fill-35" fill="#F5C3A9" stroke="none" />
    <path d="M20.3363 1.36957C20.3433 1.37561 20.3501 1.38165 20.3571 1.38742C20.6837 1.67062 21.1831 1.9508 20.9316 2.46638C20.7338 2.87154 20.4062 2.83803 20.0173 2.82869C19.7122 2.82155 19.3908 2.83034 19.1008 2.93774C18.7046 3.08469 18.4707 3.4448 18.3209 3.82634C18.1857 4.17162 18.0553 4.65039 17.7282 4.8619C17.4534 5.03962 17.2187 5.06626 17.025 5.35248C16.9445 5.47115 16.8442 5.75929 16.7033 5.79363C16.5394 5.60382 16.5299 5.19536 16.4521 4.952C16.3651 4.67978 16.1868 4.38422 15.876 4.33478C15.457 4.26831 15.1139 4.76548 14.9668 5.09099C14.7736 5.51784 14.9416 5.78868 15.015 6.2117C15.0874 6.62894 14.8643 7.09178 14.6933 7.46206C14.6175 7.62687 14.5215 7.86941 14.3088 7.76778C14.1633 7.69829 14.044 7.56204 13.9403 7.44118C13.6744 7.13161 13.579 6.69651 13.5037 6.30234C13.4641 6.09303 13.4327 5.88235 13.3966 5.67249C13.3609 5.46373 13.2975 5.2558 13.2685 5.04731C13.2088 4.61743 13.1468 4.18535 13.1468 3.74915C13.1427 3.59286 13.1839 3.59808 13.0316 3.52007C12.9194 3.46238 12.7568 3.44838 12.6346 3.42503C12.0249 3.30856 11.4953 3.30279 10.9582 3.65933C10.4951 3.96698 10.1612 4.49245 10.1591 5.06324C10.1509 6.54351 10.4881 8.51492 9.53659 9.8106C8.90057 10.6756 8.07458 10.7396 7.1223 10.6599C6.32531 10.5937 5.91909 10.6083 5.78955 11.4137C5.66462 12.2157 5.692 13.1497 5.13673 13.7905C4.57523 14.4426 3.13327 15.0719 2.28587 14.9933C1.24633 14.9032 0.478332 13.9289 0.123329 13.0478C-0.317037 11.9474 0.536054 11.5892 0.895121 10.711C1.31841 9.68809 0.212486 9.10824 0.210047 8.09301C0.208421 7.27994 0.438225 6.40809 0.997015 5.80269C1.27641 5.49971 1.62952 5.28436 2.02544 5.17916C2.51187 5.04951 3.06633 5.19234 3.52458 4.95859C3.76197 4.83773 3.93676 4.62347 4.13974 4.44987C4.64325 4.01972 5.25651 3.906 5.89551 3.96533C6.50444 4.02164 7.16106 4.17958 7.68435 3.75575C8.53608 3.06574 8.82903 1.83598 9.89431 1.42451C10.8195 1.06687 11.9021 1.33963 12.7986 1.65909C13.0961 1.76511 13.3969 1.8629 13.6896 1.97113C13.7693 1.9953 14.3503 1.00726 14.4478 0.901507C14.9316 0.379882 15.6294 0.0964086 16.3234 0.023892C17.7496 -0.125811 19.2526 0.440587 20.3363 1.36957" transform="translate(98 5.36)" id="Fill-36" fill="#504E7B" stroke="none" />
    <path d="M15 8.59691C15 9.62203 14.1211 10.3422 13.6718 10.8938C13.3605 11.2829 12.7866 12.7105 12.144 14.4818C11.6083 15.9602 11.1042 17.4495 10.6089 18.9413C10.4978 19.275 10.4258 19.6765 10.2646 19.9886C10.1364 20.2363 9.94525 20.4377 9.83501 20.7049C9.60566 21.2606 9.51619 21.8725 9.45692 22.4663C9.41094 22.9277 9.3633 23.587 9.20818 24C9.22065 23.9666 8.21546 23.3478 8.11325 23.2812C6.8657 22.4688 5.56053 21.7733 4.13681 21.3055C3.47343 21.0874 2.78594 20.9299 2.08821 20.8745C1.74336 20.8471 1.38882 20.8375 1.0448 20.8718C0.695793 20.9063 0.35316 20.9896 0 20.9652C0.133231 20.9742 0.87362 19.9837 0.978598 19.842C1.13371 19.6329 1.25614 19.4011 1.38632 19.1758C1.71843 18.6012 2.04417 18.023 2.36298 17.441C3.10753 16.0818 3.83767 14.7016 4.41879 13.2652C4.6185 12.7719 4.81211 12.2644 4.90989 11.7405C5.17552 10.3455 4.90656 9.08686 4.68691 7.53288C4.63124 7.13692 4.57529 6.72506 4.53928 6.28389C4.51629 6.04384 4.49662 5.79722 4.49025 5.54101C4.47031 5.19711 4.46394 4.83376 4.47031 4.45095C4.47363 4.25612 4.48056 4.04868 4.4933 3.83111C4.69688 0.220588 9.24807 0 9.24807 0C10.8682 0.34061 11.6027 0.379521 12.8716 2.72488C13.2032 3.33814 13.5738 4.10705 13.9112 4.89843C14.505 6.29677 15 7.76635 15 8.59691" transform="translate(102 15.36)" id="Fill-37" fill="#DF7B74" stroke="none" />
    <path d="M4 0L0.197179 2C0.142133 1.67619 0.0870875 1.33731 0.0503903 0.975489C0.027386 0.779627 0.00903738 0.576344 0 0.365415L4 0" transform="translate(106 20.36)" id="Fill-38" fill="#CE6867" stroke="none" />
    <path d="M9.79283 0.167179C9.79283 0.167179 13.1963 -0.665196 13.9483 1.3847C14.168 1.98335 13.7009 2.59295 12.2829 3.54219C8.84687 5.84295 2.294 8.45919 0.829551 7.93133C-1.23899 7.18604 0.892483 5.01198 3.58779 3.39723C6.28253 1.78221 9.79283 0.167179 9.79283 0.167179" transform="translate(99 15.36)" id="Fill-39" fill="#F5C3A9" stroke="none" />
    <path d="M0.13676 2.43869C0.13676 2.43869 4.0102 5.96638 5.44047 7.04842C6.87073 8.13046 7.31532 8.54055 7.78659 9.24763C8.25759 9.955 9.12007 10.3148 9.67384 9.64429C10.2282 8.97376 10.0583 8.68248 10.3748 8.56139C10.6911 8.44031 10.9782 8.36092 10.9998 8.13903C11.0213 7.91714 9.54685 6.58494 8.96396 6.63149C8.38134 6.67804 7.92921 6.98503 7.5984 6.67861C7.26733 6.3719 2.77837 0.185228 2.21462 0.0495799C1.65087 -0.0860677 -0.567723 -0.123192 0.13676 2.43869" transform="translate(100 20.36)" id="Fill-40" fill="#F5C3A9" stroke="none" />
    <path d="M9.75426 0.49265L9.46787 0.375019C9.34459 0.148674 9.06013 0.0109114 8.55656 0.000845238C5.31631 -0.0632907 0 3.54385 0 3.54385C0.0573861 3.58383 2.01208 8 2.01208 8L3.986 7.23727C3.986 7.23727 6.27732 6.15415 7.84679 5.34886C8.52883 4.99884 9.07441 4.70117 9.23696 4.56744C9.77348 4.12596 11 1.87775 11 1.87775L9.75426 0.49265" transform="translate(102 15.36)" id="Fill-41" fill="#DF7B74" stroke="none" />
    <path d="M3 1.81809C3 1.81809 2.58965 6.40941 2.10456 6.94137C2.0844 6.96317 2.06449 6.97863 2.04506 6.98609C1.29075 7.28367 -0.115589 2.72299 0.00758892 1.38192C0.0380761 1.03934 0.211902 0.781232 0.450636 0.587442C1.14397 0.0234646 2.40255 0 2.40255 0L3 1.81809" transform="translate(100 53.36)" id="Fill-42" fill="#504E7B" stroke="none" />
    <path d="M2 5.94514C1.98084 5.96554 1.96192 5.98001 1.94346 5.98698C1.22662 6.26542 -0.109846 1.99816 0.00721187 0.743368C0.0361843 0.422826 0.201374 0.181322 0.428246 0C0.451611 0.533634 0.558155 1.72643 1.00279 3.12406C1.40583 4.3915 1.78925 5.40841 2 5.94514" transform="translate(100 54.36)" id="Fill-43" fill="#ADAAC9" stroke="none" />
    <path d="M0.999014 0.531779C0.981547 0.8074 0.743936 1.01645 0.468379 0.99898C0.192822 0.98181 -0.0161798 0.744143 0.000986053 0.468521C0.018453 0.1929 0.256064 -0.0164525 0.531621 0.00101865C0.807178 0.0184898 1.01618 0.256157 0.999014 0.531779" transform="translate(101 54.36)" id="Fill-44" fill="#DF7B74" stroke="none" />
    <path d="M3.50753 1.43147C3.50753 1.43147 5.24292 6.06893 4.97111 6.83947C4.95985 6.87146 4.94594 6.89694 4.92817 6.91412C4.25456 7.6029 0.572075 3.9632 0.0684238 2.60668C-0.0609681 2.26066 0.00446809 1.91939 0.169983 1.60596C0.651724 0.693219 1.99953 0 1.99953 0L3.50753 1.43147" transform="translate(85 68.36)" id="Fill-45" fill="#504E7B" stroke="none" />
    <path d="M5 4.85119C4.98868 4.88085 4.97469 4.90447 4.95682 4.92039C4.27929 5.55885 0.575401 2.18504 0.0688215 0.92762C-0.0613225 0.60688 0.00449406 0.290533 0.170971 0C0.470273 0.496213 1.20021 1.57844 2.42094 2.67988C3.52851 3.67863 4.48538 4.44917 5 4.85119" transform="translate(85 70.36)" id="Fill-46" fill="#ADAAC9" stroke="none" />
    <path d="M0.961478 0.307505C1.06746 0.562544 0.947326 0.855222 0.692307 0.961213C0.437287 1.06781 0.144932 0.94706 0.0386489 0.692623C-0.0676345 0.437584 0.0527999 0.144906 0.30782 0.0386149C0.562238 -0.0676765 0.854893 0.0530682 0.961478 0.307505" transform="translate(86 69.36)" id="Fill-47" fill="#DF7B74" stroke="none" />
    <path d="M1 0.224383L0.544855 2L0 1.67993L0.566096 0L1 0.224383" transform="translate(111 7.36)" id="Fill-48" fill="#DF7B74" stroke="none" />
    <path d="M4 4.11229C4 5.1379 3.12979 5.85837 2.68495 6.41024C2.37669 6.79954 1.80843 8.22788 1.17216 10L0 9.74367C0 9.74367 0.198012 8.85733 0.613507 7.59815C1.02571 6.34198 2.11368 4.74175 2.28564 3.74219C2.45787 2.74263 1.62989 0 1.62989 0C1.62989 0 2.37011 0.233578 2.92191 0.412052C3.50991 1.81105 4 3.28134 4 4.11229" transform="translate(113 19.36)" id="Fill-49" fill="#ADAAC9" stroke="none" />
    <path d="M1.26651 2.37689C1.26651 2.37689 -3.4605 7.85131 5.3499 15.1258C12.8167 21.2907 17.6847 26.3527 19.9548 24.6749C22.225 22.9971 23.4942 22.0184 18.8834 16.01C14.2726 10.0012 7.63162 -0.311 4.92938 0.00719413C2.22714 0.325938 1.26651 2.37689 1.26651 2.37689" transform="translate(67 38.36)" id="Fill-50" fill="#F5C3A9" stroke="none" />
    <path d="M6.8613 12.9054C6.53764 13.8662 6.04725 15.3207 5.46875 16.8903C4.52742 19.4432 3.35343 22.3037 2.28137 23.8541C1.73541 24.6418 1.21565 25.0905 0.764427 24.9847C0.368776 24.8918 0.146763 24.3792 0.0549053 23.5784C-0.150983 21.8389 0.247835 18.7353 0.823169 15.6155C1.24502 13.3281 1.75816 11.0348 2.19297 9.26341C3.49424 3.96854 6.21398 0.355577 6.21398 0.355577C6.21398 0.355577 6.9235 -0.672869 9.23462 0.768366C11.5489 2.21327 7.9826 9.58676 6.8613 12.9054" transform="translate(79 58.36)" id="Fill-51" fill="#F5C3A9" stroke="none" />
    <path d="M16.5474 0.331421C16.5474 0.331421 9.91461 -2.44879 5.55745 8.09564C1.86452 17.0317 -1.54081 23.1777 0.734559 24.8048C3.0102 26.4319 4.32105 27.3291 8.70745 21.1353C13.0941 14.9418 20.9983 5.51194 19.8957 3.06027C18.7933 0.608326 16.5474 0.331421 16.5474 0.331421" transform="translate(59 37.36)" id="Fill-52" fill="#F5C3A9" stroke="none" />
    <path d="M23.9985 2.56031C24.1237 5.13817 16.2837 6.48108 13.0199 7.4572C11.9766 7.76838 10.3495 8.25807 8.59091 8.72307C4.83984 9.71791 0.49807 10.608 0.0358586 9.4591C-0.388936 8.39969 3.0251 6.42845 6.84798 4.63003C9.10924 3.56438 11.5144 2.56303 13.3509 1.84247C18.2861 -0.0886172 22.6653 0.000639114 22.6653 0.000639114C22.7057 0.000639114 23.8769 0.0223428 23.9985 2.56031" transform="translate(40 59.36)" id="Fill-53" fill="#F5C3A9" stroke="none" />
    <path d="M8.824 0.085461C9.25189 0.306084 9.40673 0.895504 9.55935 1.38213C10.4154 4.10615 9.91649 8.53228 8.98245 8.71435C8.54206 8.80047 6.56743 8.51861 6.09707 9.32838C5.62478 10.136 4.84586 12.9395 3.58798 14L0 9.62473C0.18037 9.23214 0.360463 8.83929 0.540556 8.44671C0.753393 7.98304 1.25621 6.59533 1.27314 6.32769C1.2798 6.2208 1.32198 6.14206 1.32891 6.04583C1.33807 5.92144 1.16075 5.66609 1.19794 5.57998C1.26093 5.43399 1.59198 5.48703 1.71269 5.43126C1.88834 5.34979 2.07176 5.17783 2.21606 5.04961C2.53018 4.77021 2.91756 4.55068 3.21254 4.25515C3.52971 3.93775 3.79943 3.53013 4.06499 3.17008C5.07895 1.79577 6.442 0.356934 8.19575 0.0250427C8.46242 -0.0255338 8.66527 0.00344515 8.824 0.085461" transform="translate(74 3.36)" id="Fill-54" fill="#F5C3A9" stroke="none" />
    <path d="M9.13719 3.59964C9.09826 3.62932 9.05801 3.65679 9.01617 3.68207C8.68805 3.881 7.98016 3.79308 7.69706 4.06042C7.05671 4.66627 7.82312 5.58452 6.97382 5.96424C6.15021 6.33187 7.09034 8.35795 6.37399 8.6187C5.65525 8.88137 5.86684 6.28268 5.22676 6.39808C4.58428 6.51129 3.65554 7.19929 4.05728 8.77779C4.39838 10.1126 2.51387 10.0282 1.74587 9.97657C1.71382 9.97437 1.68046 9.97163 1.65424 9.95349C1.62537 9.93371 1.61001 9.89936 1.59703 9.86612C1.50938 9.64411 1.4821 9.40452 1.42437 9.17372C1.36637 8.94265 1.26653 8.73767 1.16086 8.52693C0.927022 8.05956 0.672258 7.60319 0.460397 7.12428C0.0199891 6.12772 -0.175453 4.97839 0.195305 3.92386C0.388364 3.37571 0.696622 2.85092 1.22283 2.60666C1.42251 2.51434 1.58459 2.51763 1.69608 2.35992C1.79195 2.22419 1.85259 1.97608 1.94184 1.82167C2.68945 0.526442 4.57078 0.549797 5.84248 0.455828C7.07657 0.364608 8.58238 0.567931 9.72908 0C9.8411 0.423681 10 0.820162 10 1.28643C9.99947 2.07802 9.78205 3.10947 9.13719 3.59964" transform="translate(73 0.36)" id="Fill-55" fill="#504E7B" stroke="none" />
    <path d="M21 15.758C21 15.758 20.0988 17.4911 18.0079 19.3802C17.2347 20.0772 16.5005 20.6808 15.9261 21.1352C15.2303 21.6799 14.7718 22 14.7718 22C14.7718 22 7.7509 17.4944 3.71949 13.4865C3.42116 13.191 3.13894 12.8953 2.87592 12.6058C-0.918175 8.41103 0.133889 3.81825 0.133889 3.81825L4.13309 0.672147C4.13309 0.672147 11.5292 -1.61794 12.1578 2.25616C12.7863 6.13026 21 15.758 21 15.758" transform="translate(66 38.36)" id="Fill-56" fill="#504E7B" stroke="none" />
    <path d="M12 14.1092C11.316 14.6702 10.8652 15 10.8652 15C10.8652 15 3.96315 10.359 0 6.23078L5.60591 0C5.60591 0 5.60924 5.24685 6.99648 7.78868C8.01157 9.64106 10.6475 12.6284 12 14.1092" transform="translate(70 45.36)" id="Fill-57" fill="#3D3D68" stroke="none" />
    <path d="M7.86336 23C7.86336 23 1.56169 19.8335 0.00153078 17.5851C-0.126257 17.4009 7.7887 1.31757 7.97317 1.21532C8.15627 1.1139 13.7073 0.0166326 13.789 0.000516826C13.9683 -0.0350491 15.108 1.77631 15.2304 1.94108C16.102 3.11559 16.9739 4.29038 17.8458 5.46517C18.2289 5.98143 18.6068 6.51103 19 7.01645C18.4215 7.71971 18.206 8.49077 17.8908 9.3413C17.6456 10.0026 17.4069 10.6725 17.1777 11.3477C17.0279 11.7898 16.9033 12.3127 16.5712 12.6348C15.9116 13.2738 15.0004 13.6751 14.2814 14.2438C13.3503 14.9807 12.7468 15.991 12.0733 16.9585C11.3785 17.9552 10.684 18.9519 9.98944 19.9488C9.28102 20.9658 8.57233 21.983 7.86336 23" transform="translate(60 36.36)" id="Fill-58" fill="#504E7B" stroke="none" />
    <path d="M7.99652 2.52422C7.99652 2.52422 10.9677 -1.21605 12.9766 0.409265C14.6692 1.77857 14.0033 3.29361 12.8427 5.2418C10.0302 9.9638 3.6804 16.8125 1.64212 16.9885C-1.23718 17.2372 0.0910415 13.3987 2.40256 9.92559C4.71409 6.4528 7.99652 2.52422 7.99652 2.52422" transform="translate(61 13.36)" id="Fill-59" fill="#F5C3A9" stroke="none" />
    <path d="M1.06354 4.21271C3.11714 5.93806 8.43984 7.45488 11.0709 8.34556C13.702 9.23625 14.5512 9.61587 15.5648 10.3967C16.5785 11.1778 18.0422 11.3084 18.6053 10.1384C19.1683 8.96869 18.7879 8.63663 19.2189 8.33245C19.6497 8.02853 20.0542 7.79486 19.994 7.47729C19.9338 7.15971 17.13 5.93997 16.2622 6.25481C15.3947 6.56938 14.8341 7.19005 14.2021 6.90609C13.57 6.62185 4.14239 -0.0529763 3.2271 0.000317426C2.31209 0.0536111 -1.95313 1.67893 1.06354 4.21271" transform="translate(61 27.36)" id="Fill-60" fill="#F5C3A9" stroke="none" />
    <path d="M9 0C9 0 4.88977 2.12845 0 9.69138C0 9.69138 0.875863 10.9914 2.55479 12.3888C4.18163 13.7422 5.12918 14 5.12918 14L8.00233 10.945L9 0" transform="translate(63 13.36)" id="Fill-61" fill="#EFBE47" stroke="none" />
    <path d="M0.0218111 29.4094C-0.328328 29.4996 3.66164 17.5929 3.06897 14.3538C2.47576 11.1149 1.10657 5.30132 3.52942 2.59524C5.95255 -0.111114 8.20669 -0.339938 10.1556 0.295313C12.1045 0.930285 14.6603 3.89441 14.9702 9.11004C15.28 14.3254 13.0724 31 13.0724 31C13.0724 31 2.22539 28.8423 0.0218111 29.4094" transform="translate(66 12.36)" id="Fill-62" fill="#F7CD5D" stroke="none" />
    <path d="M0.848384 5.84386C0.848384 5.84386 -1.19871 1.50083 1.06687 0.339406C2.97599 -0.639213 4.0292 0.623645 5.25719 2.5281C8.2333 7.1441 11.6032 15.9363 10.9078 17.8943C9.9258 20.6603 7.107 17.7932 5.01912 14.1739C2.93176 10.5544 0.848384 5.84386 0.848384 5.84386" transform="translate(73 17.36)" id="Fill-63" fill="#F5C3A9" stroke="none" />
    <path d="M3.5685 17.4889C6.00219 16.084 9.34503 11.3823 11.1385 9.10881C12.9322 6.83507 13.6035 6.13444 14.734 5.4157C15.8642 4.69695 16.4958 3.30119 15.5145 2.32602C14.5329 1.35031 14.0697 1.60646 13.9116 1.07248C13.7538 0.538221 13.6576 0.0558543 13.3184 0.000946325C12.9792 -0.0536871 10.7966 2.27167 10.8155 3.24024C10.8344 4.20854 11.2658 4.98384 10.7644 5.50492C10.2631 6.026 0.340251 12.9211 0.0808023 13.8424C-0.178647 14.7638 -0.0056808 19.552 3.5685 17.4889" transform="translate(81 18.36)" id="Fill-64" fill="#F5C3A9" stroke="none" />
    <path d="M3.54658 15C3.49187 14.9572 0.457717 7.25794 0.0469892 5.15728C-0.31143 3.32482 1.46412 0.787917 2.53618 0.329596C5.20337 -0.809998 6.90553 1.29425 7.65493 2.26635C8.40406 3.23873 11 11.8022 11 11.8022C11 11.8022 9.37417 12.8006 7.35469 13.8234C5.32213 14.8529 3.54658 15 3.54658 15" transform="translate(72 14.36)" id="Fill-65" fill="#EFBE47" stroke="none" />
    <path d="M9 3.81105C5.07031 4.73735 0.521788 5.56614 0.0375661 4.49636C-0.407457 3.50994 3.16916 1.67452 7.17408 0L9 3.81105" transform="translate(40 64.36)" id="Fill-66" fill="#E77D72" stroke="none" />
    <path d="M5 1.23785C4.13936 3.71684 3.06599 6.49447 2.08583 8L0.0501992 7.73232C-0.138041 6.04322 0.226592 3.02942 0.752612 0L5 1.23785" transform="translate(80 73.36)" id="Fill-67" fill="#E77D72" stroke="none" />
    <path d="M15 7.38539C14.8244 8.87496 15 12.1548 15 12.1548C15 12.1548 14.4641 13.5762 12.4365 12.7324C2.72216 8.69106 1.02573 12.2173 0.0627122 11.6768C-0.295979 11.4754 0.975478 10.555 1.55922 8.34054C2.1435 6.12605 4.595 0 4.595 0L15 7.38539" transform="translate(65 33.36)" id="Fill-68" fill="#F7CD5D" stroke="none" />
    <path d="M5 2.52556C5 2.52556 4.74873 9.09687 3.99463 9.90245C3.96336 9.93579 3.93181 9.9598 3.90026 9.97207C2.67821 10.4717 -0.0769456 4.12738 0.00164661 2.2076C0.0204645 1.71705 0.284468 1.3324 0.661378 1.03258C1.75779 0.160315 3.84076 0 3.84076 0L5 2.52556" transform="translate(38 67.36)" id="Fill-69" fill="#504E7B" stroke="none" />
    <path d="M4 8.9021C3.96869 8.93556 3.9371 8.95965 3.90551 8.97197C2.68181 9.4734 -0.0770491 3.10604 0.00164883 1.17929C0.020492 0.68696 0.28485 0.300913 0.662268 0C0.756483 0.811448 1.06185 2.61987 1.97713 4.70484C2.80789 6.59519 3.57852 8.10591 4 8.9021" transform="translate(38 68.36)" id="Fill-70" fill="#ADAAC9" stroke="none" />
    <path d="M0 0L2 0.912562L2 2L0 0.64063L0 0" transform="translate(40 70.36)" id="Fill-71" fill="#ADAAC9" stroke="none" />
    <path d="M3.71391 0.695691C3.71391 0.695691 8.79185 5.24359 8.99343 6.40676C9.00169 6.45508 9.00249 6.49757 8.99397 6.53192C8.67974 7.88517 2.03253 6.00564 0.551946 4.67248C0.173011 4.33307 0.0206915 3.85803 0.00205098 3.34455C-0.053338 1.85042 1.03154 0 1.03154 0L3.71391 0.695691" transform="translate(79 79.36)" id="Fill-72" fill="#504E7B" stroke="none" />
    <path d="M8.99343 2.51313C9.00169 2.55279 9.00249 2.58766 8.99396 2.61585C8.67967 3.72645 2.03095 2.18394 0.55002 1.08982C0.170999 0.811273 0.0186448 0.421403 0 0C0.69758 0.373147 2.30769 1.13951 4.49179 1.6364C6.47266 2.08671 8.11766 2.3729 8.99343 2.51313" transform="translate(79 83.36)" id="Fill-73" fill="#ADAAC9" stroke="none" />
    <path d="M0 1.53309L2.12789 0L3 0.792347L0.513992 2L0 1.53309" transform="translate(80 82.36)" id="Fill-74" fill="#ADAAC9" stroke="none" />
  </g>
</svg>