<svg version="1.1" id="Layer_1" xmlns="http://www.w3.org/2000/svg" x="0" y="0" viewBox="0 0 100 100" xml:space="preserve"><style>.st0{fill:none;stroke:#676b6c;stroke-width:4.5;stroke-miterlimit:10}.st1{fill:#676b6c}</style><path class="st0" d="M1357.83 161.3s-10.89 22.52-26.21 33.61c0 0-13.57 10.04 7.65 10.53 1.98.05 3.96-.1 5.93-.33 3.42-.4 10.47.14 4.51 13.18l-6.65 20.74 34.52-32.53s8.17-8.61-3.74-9.6l-17.7-1.32c-.01-.01 10.2-27.31 1.69-34.28zM1315.96 164.07l79.4 77.23"/><path class="st0" d="M1357.83 161.3s-10.89 22.52-26.21 33.61c0 0-13.57 10.04 7.65 10.53 1.98.05 3.96-.1 5.93-.33 3.42-.4 10.47.14 4.51 13.18l-6.65 20.74 34.52-32.53s8.17-8.61-3.74-9.6l-17.7-1.32c-.01-.01 10.2-27.31 1.69-34.28zM1315.96 164.07l79.4 77.23M18.67 60.47l.94-11.27s2.9-4.38 11.42-5.19c0 0 19.31-.6 23.51-2.58 0 0 4.16-.63 6.87-3.72 0 0 1.48 3.23 4.12 4.98l6.71 3.57s3.06-.15 2.67 10.99l1.1 6.84s1.96-14.95 1.65-18.43c0 0 .16-18.12-13.66-18.84 0 0-4.42-8.24-19.44-5.47 0 0-23.42-.41-27.89 20.65 0 0 .49 11.86 1.07 18.47.05.58.88.58.93 0z"/><path class="st0" d="M74.85 72.4c-.96 3.71-5.33 17.22-18.49 18.85-.08.01-.17.03-.24.07-1.27.56-13.14 5.28-28.65-4.62a.968.968 0 01-.22-.19c-.86-.99-7.24-8.48-7.78-13.13a.916.916 0 00-.6-.74c-1.01-.38-3.08-1.28-3.8-2.46a.868.868 0 01-.12-.47V53.12s.38-1.08 1.35 0l1.22 4.97c.01.04.02.09.02.14l.53 5.42s1.35-10.91 1.51-14.09c.01-.24.11-.45.28-.62.98-.97 4.6-4.24 8.91-4.61 0 0 19.12-.99 21.07-1.77 0 0 7.84-1.41 10.01-3.44l.65-.6a.95.95 0 011.47.24l.75 1.34c.03.05.05.08.08.12.15.19.68.82 1.57 1.52.54.43 1.11.82 1.69 1.24.03.02.07.05.11.07l6.05 3.22s3.04.21 2.67 10.9c0 .06 0 .12.01.18.18 1.09 1.75 1.06 1.88-.04l.3-2.57c.01-.05.01-.09.01-.14-.01-.37 0-2.28 1.45-1.79 0 0 1.87-1.64.44 9.44-.22 1.67-.32 3.35-.33 5.03-.02 2.02-.46 4.82-2.8 4.42-.45-.08-.88.25-1 .7zM81.25 69.91c-1.24 10.17-11.09 14.81-28.14 14.81"/><ellipse class="st1" cx="50.51" cy="84.92" rx="3.49" ry="3.65"/><ellipse class="st0" cx="34.76" cy="55.19" rx="2.71" ry="2.07"/><ellipse class="st0" cx="56.66" cy="54.64" rx="2.71" ry="2.07"/><path class="st0" d="M38.36 73.73h19.57c.01 0-7.24 12.72-19.57 0z"/><path class="st1" d="M6.49 54.64h6.78v16.08H6.49zM80.38 55.45h6.11v15.82h-6.11z"/><path class="st1" d="M8.36 55s.11-9.31 1.29-17.73c.29-2.1 1.23-4.02 1.92-5.6 0 0 2.26-4.41 6.56-8.67 3.09-3.06 7.29-5.49 10.96-7.01.44-.18 1.17-.44 1.63-.57 1.89-.54 11.92-3.68 22.67-2.01 0 0 13.15 1.47 21.6 8.59 0 0 8.69 8.78 9 14l.41 19.96h-1.77l-.43-17.25c-.05-1.9-.52-3.76-1.38-5.45-2.09-4.09-6.81-11.38-15.14-14.92 0 0-6.93-2.99-14.67-3.76-3.1-.31-6.18-.25-9.17.05-3.41.34-8.19 1.68-11.91 2.76-.43.13-1.18.52-1.58.68-1.4.57-4.45 1.82-7.57 4.65-1.82 1.64-3.64 3.91-5.33 6.15-2.19 2.89-3.69 6.24-4.31 9.81-.22 1.26-.42 2.73-.58 4.42L10.35 55H8.36z"/></svg>