<?xml version="1.0" encoding="utf-8"?>
<!-- Generator: Adobe Illustrator 23.0.1, SVG Export Plug-In . SVG Version: 6.00 Build 0)  -->
<svg version="1.1" id="Layer_1" xmlns="http://www.w3.org/2000/svg" xmlns:xlink="http://www.w3.org/1999/xlink" x="0px" y="0px"
	 viewBox="0 0 100 100" style="enable-background:new 0 0 100 100;" xml:space="preserve">
<style type="text/css">
	.st0{fill:none;stroke:#676B6C;stroke-width:4.5;stroke-miterlimit:10;}
</style>
<g>
	<g>
		<path class="st0" d="M1357.83,161.3c0,0-10.89,22.52-26.21,33.61c0,0-13.57,10.04,7.65,10.53c1.98,0.05,3.96-0.1,5.93-0.33
			c3.42-0.4,10.47,0.14,4.51,13.18l-6.65,20.74l34.52-32.53c0,0,8.17-8.61-3.74-9.6l-17.7-1.32
			C1356.13,195.57,1366.34,168.27,1357.83,161.3z"/>
		<path class="st0" d="M1344.73,206.16"/>
		<line class="st0" x1="1315.96" y1="164.07" x2="1395.36" y2="241.3"/>
	</g>
</g>
<g>
	<g>
		<path class="st0" d="M1357.83,161.3c0,0-10.89,22.52-26.21,33.61c0,0-13.57,10.04,7.65,10.53c1.98,0.05,3.96-0.1,5.93-0.33
			c3.42-0.4,10.47,0.14,4.51,13.18l-6.65,20.74l34.52-32.53c0,0,8.17-8.61-3.74-9.6l-17.7-1.32
			C1356.13,195.57,1366.34,168.27,1357.83,161.3z"/>
		<path class="st0" d="M1344.73,206.16"/>
		<line class="st0" x1="1315.96" y1="164.07" x2="1395.36" y2="241.3"/>
	</g>
</g>
<g>
	<path class="st0" d="M39.57,80.7c-7.78,0-14.11-6.04-14.11-13.47c0-7.43,6.33-13.47,14.11-13.47c7.78,0,14.11,6.04,14.11,13.47
		C53.68,74.66,47.35,80.7,39.57,80.7z M39.57,56.56c-6.16,0-11.18,4.79-11.18,10.67s5.01,10.67,11.18,10.67
		c6.16,0,11.18-4.79,11.18-10.67S45.74,56.56,39.57,56.56z"/>
</g>
<g>
	<path class="st0" d="M39.57,80.7c-7.78,0-14.11-6.04-14.11-13.47c0-7.43,6.33-13.47,14.11-13.47c7.78,0,14.11,6.04,14.11,13.47
		C53.68,74.66,47.35,80.7,39.57,80.7z M39.57,56.56c-6.16,0-11.18,4.79-11.18,10.67s5.01,10.67,11.18,10.67
		c6.16,0,11.18-4.79,11.18-10.67S45.74,56.56,39.57,56.56z"/>
</g>
<g>
	<path class="st0" d="M44.45,94.11h-9.77l-2.19-7.59c-0.78-0.26-1.54-0.57-2.29-0.91l-7.17,3.89l-6.91-6.6L20.24,76
		c-0.26-0.52-0.5-1.06-0.71-1.61l-8.09-1.91l-0.25-9.32l8.06-2.34c0.24-0.68,0.51-1.36,0.82-2.01l-4.36-6.9l6.72-6.77l7.5,3.83
		c0.81-0.39,1.65-0.73,2.5-1.02l2.26-7.83h9.77l2.26,7.83c0.67,0.23,1.34,0.49,2,0.79l7.39-4.01l6.91,6.6l-4.17,7.01
		c0.24,0.48,0.47,0.98,0.68,1.48l8.18,1.93l0.25,9.32l-7.98,2.31c-0.24,0.72-0.52,1.44-0.84,2.13l4.3,6.8l-6.72,6.77l-7.28-3.72
		c-0.9,0.45-1.84,0.84-2.79,1.15L44.45,94.11z M36.92,91.32h5.31l2.02-7l0.77-0.23c1.27-0.37,2.51-0.89,3.69-1.53l0.7-0.38
		l6.72,3.43l3.65-3.67l-3.96-6.27l0.35-0.68c0.5-0.98,0.91-2.02,1.22-3.08l0.21-0.74l7.37-2.14l-0.14-5.06l-7.54-1.78l-0.26-0.72
		c-0.31-0.87-0.7-1.71-1.14-2.5l-0.38-0.68l3.85-6.47l-3.75-3.58l-6.82,3.7l-0.71-0.35c-0.98-0.49-1.99-0.89-3.01-1.19l-0.76-0.23
		l-2.08-7.23h-5.3l-2.08,7.23l-0.76,0.23c-1.18,0.35-2.33,0.82-3.43,1.4l-0.7,0.37l-6.92-3.53l-3.65,3.68l4.03,6.37l-0.36,0.69
		c-0.49,0.95-0.9,1.94-1.21,2.97l-0.22,0.73l-7.43,2.15l0.14,5.06l7.47,1.77l0.25,0.73c0.31,0.9,0.7,1.78,1.16,2.61l0.37,0.68
		l-3.79,6.37l3.75,3.58l6.62-3.59l0.71,0.36c1.05,0.53,2.14,0.97,3.27,1.3l0.77,0.23L36.92,91.32z"/>
</g>
<g>
	<path class="st0" d="M70.41,40.85c-5-1-8.22-5.71-7.17-10.49c1.05-4.78,5.98-7.85,10.98-6.85c5,1,8.22,5.71,7.17,10.49
		S75.42,41.85,70.41,40.85z M73.83,25.31c-3.97-0.79-7.87,1.64-8.7,5.43c-0.83,3.79,1.72,7.51,5.68,8.31
		c3.97,0.79,7.87-1.64,8.7-5.43S77.79,26.11,73.83,25.31z"/>
</g>
<g>
	<path class="st0" d="M70.41,40.85c-5-1-8.22-5.71-7.17-10.49c1.05-4.78,5.98-7.85,10.98-6.85c5,1,8.22,5.71,7.17,10.49
		S75.42,41.85,70.41,40.85z M73.83,25.31c-3.97-0.79-7.87,1.64-8.7,5.43c-0.83,3.79,1.72,7.51,5.68,8.31
		c3.97,0.79,7.87-1.64,8.7-5.43S77.79,26.11,73.83,25.31z"/>
</g>
<g>
	<path class="st0" d="M71.66,50.11l-6.28-1.26l-0.33-5.16c-0.46-0.27-0.91-0.56-1.34-0.88l-5.17,1.58l-3.51-5.13l3.62-3.91
		c-0.09-0.37-0.17-0.75-0.23-1.12l-4.93-2.27l1.15-6.03l5.52-0.46c0.25-0.41,0.52-0.81,0.81-1.19l-1.83-5l5.28-3.49l4.28,3.43
		c0.58-0.15,1.16-0.26,1.75-0.34l2.56-4.75l6.28,1.26l0.34,5.33c0.4,0.23,0.79,0.49,1.17,0.77l5.33-1.63l3.51,5.13l-3.67,3.97
		c0.09,0.34,0.16,0.69,0.22,1.04l4.99,2.3l-1.15,6.03l-5.46,0.46c-0.26,0.44-0.54,0.86-0.84,1.26l1.8,4.93l-5.28,3.49l-4.16-3.33
		c-0.64,0.17-1.3,0.3-1.96,0.38L71.66,50.11z M67.21,47.34l3.41,0.68l2.29-4.24l0.53-0.05c0.87-0.08,1.74-0.25,2.59-0.51l0.51-0.16
		l3.84,3.07l2.87-1.89l-1.66-4.54l0.32-0.4c0.46-0.57,0.87-1.18,1.22-1.83l0.24-0.45l5.04-0.42l0.63-3.28l-4.6-2.12l-0.07-0.5
		c-0.08-0.6-0.21-1.19-0.38-1.76l-0.15-0.49l3.39-3.67l-1.91-2.79l-4.91,1.5l-0.41-0.32c-0.56-0.44-1.16-0.83-1.77-1.15l-0.46-0.24
		l-0.32-4.92l-3.41-0.68l-2.36,4.38l-0.52,0.05c-0.81,0.07-1.62,0.23-2.41,0.46l-0.5,0.15l-3.95-3.16l-2.87,1.89l1.69,4.62
		l-0.33,0.4c-0.45,0.54-0.86,1.14-1.2,1.76l-0.25,0.44l-5.09,0.43l-0.63,3.28l4.56,2.1l0.06,0.5c0.07,0.62,0.2,1.23,0.38,1.83
		l0.14,0.48l-3.34,3.61l1.91,2.79l4.77-1.46l0.41,0.33c0.6,0.48,1.24,0.9,1.92,1.26l0.46,0.24L67.21,47.34z"/>
</g>
</svg>
