<?xml version="1.0" encoding="utf-8"?>
<!-- Generator: Adobe Illustrator 23.0.1, SVG Export Plug-In . SVG Version: 6.00 Build 0)  -->
<svg version="1.1" id="Layer_1" xmlns="http://www.w3.org/2000/svg" xmlns:xlink="http://www.w3.org/1999/xlink" x="0px" y="0px"
	 viewBox="0 0 100 100" style="enable-background:new 0 0 100 100;" xml:space="preserve">
<style type="text/css">
	.st0{fill:none;stroke:#676B6C;stroke-width:4.5;stroke-miterlimit:10;}
</style>
<g>
	<g>
		<path class="st0" d="M1357.83,161.3c0,0-10.89,22.52-26.21,33.61c0,0-13.57,10.04,7.65,10.53c1.98,0.05,3.96-0.1,5.93-0.33
			c3.42-0.4,10.47,0.14,4.51,13.18l-6.65,20.74l34.52-32.53c0,0,8.17-8.61-3.74-9.6l-17.7-1.32
			C1356.13,195.57,1366.34,168.27,1357.83,161.3z"/>
		<path class="st0" d="M1344.73,206.16"/>
		<line class="st0" x1="1315.96" y1="164.07" x2="1395.36" y2="241.3"/>
	</g>
</g>
<g>
	<g>
		<path class="st0" d="M1357.83,161.3c0,0-10.89,22.52-26.21,33.61c0,0-13.57,10.04,7.65,10.53c1.98,0.05,3.96-0.1,5.93-0.33
			c3.42-0.4,10.47,0.14,4.51,13.18l-6.65,20.74l34.52-32.53c0,0,8.17-8.61-3.74-9.6l-17.7-1.32
			C1356.13,195.57,1366.34,168.27,1357.83,161.3z"/>
		<path class="st0" d="M1344.73,206.16"/>
		<line class="st0" x1="1315.96" y1="164.07" x2="1395.36" y2="241.3"/>
	</g>
</g>
<g>
	<line class="st0" x1="45.55" y1="91.96" x2="45.55" y2="88.65"/>
	<line class="st0" x1="45.55" y1="91.96" x2="45.55" y2="88.65"/>
	<line class="st0" x1="7.05" y1="57.09" x2="10.71" y2="57.09"/>
	<line class="st0" x1="7.05" y1="57.09" x2="10.71" y2="57.09"/>
	<line class="st0" x1="7.05" y1="57.09" x2="10.71" y2="57.09"/>
	<line class="st0" x1="7.05" y1="57.09" x2="10.71" y2="57.09"/>
	<line class="st0" x1="18.33" y1="81.75" x2="20.92" y2="79.4"/>
	<line class="st0" x1="18.33" y1="81.75" x2="20.92" y2="79.4"/>
	<line class="st0" x1="73.7" y1="82.58" x2="71.12" y2="80.24"/>
	<line class="st0" x1="73.7" y1="82.58" x2="71.12" y2="80.24"/>
	<line class="st0" x1="31.5" y1="89.55" x2="32.84" y2="86.47"/>
	<line class="st0" x1="31.5" y1="89.55" x2="32.84" y2="86.47"/>
	<line class="st0" x1="9.71" y1="44.36" x2="13.12" y2="45.57"/>
	<line class="st0" x1="9.71" y1="44.36" x2="13.12" y2="45.57"/>
	<line class="st0" x1="9.71" y1="44.36" x2="13.12" y2="45.57"/>
	<line class="st0" x1="9.71" y1="44.36" x2="13.12" y2="45.57"/>
	<line class="st0" x1="10.27" y1="71.04" x2="13.62" y2="69.72"/>
	<line class="st0" x1="10.27" y1="71.04" x2="13.62" y2="69.72"/>
	<line class="st0" x1="60.96" y1="89.05" x2="59.5" y2="86.01"/>
	<line class="st0" x1="61.19" y1="89.53" x2="59.73" y2="86.49"/>
	<g>
		<ellipse class="st0" cx="46.84" cy="57.38" rx="40" ry="36.23"/>
		<ellipse class="st0" cx="46.84" cy="56.51" rx="3.3" ry="2.98"/>
		<line class="st0" x1="46.84" y1="56.51" x2="71.97" y2="38.88"/>
		<line class="st0" x1="46.84" y1="21.15" x2="46.84" y2="14.32"/>
		<line class="st0" x1="64.17" y1="24.39" x2="66.79" y2="20.03"/>
		<line class="st0" x1="38.12" y1="13.62" x2="55.55" y2="13.62"/>
		<line class="st0" x1="45.55" y1="22.21" x2="45.55" y2="25.53"/>
		<line class="st0" x1="45.55" y1="22.21" x2="45.55" y2="25.53"/>
		<line class="st0" x1="84.05" y1="57.09" x2="80.39" y2="57.09"/>
		<line class="st0" x1="84.05" y1="57.09" x2="80.39" y2="57.09"/>
		<line class="st0" x1="84.05" y1="57.09" x2="80.39" y2="57.09"/>
		<line class="st0" x1="85.07" y1="57.09" x2="81.42" y2="57.09"/>
		<line class="st0" x1="72.78" y1="32.43" x2="70.19" y2="34.77"/>
		<line class="st0" x1="73.22" y1="32.02" x2="70.64" y2="34.37"/>
		<line class="st0" x1="18.33" y1="32.43" x2="20.92" y2="34.77"/>
		<line class="st0" x1="18.33" y1="32.43" x2="20.92" y2="34.77"/>
		<line class="st0" x1="59.61" y1="24.62" x2="58.27" y2="27.7"/>
		<line class="st0" x1="59.61" y1="24.62" x2="58.27" y2="27.7"/>
		<line class="st0" x1="82.22" y1="70.38" x2="78.82" y2="69.17"/>
		<line class="st0" x1="82.22" y1="70.38" x2="78.82" y2="69.17"/>
		<line class="st0" x1="82.22" y1="70.38" x2="78.82" y2="69.17"/>
		<line class="st0" x1="82.22" y1="70.38" x2="78.82" y2="69.17"/>
		<line class="st0" x1="80.84" y1="43.13" x2="77.48" y2="44.46"/>
		<line class="st0" x1="81.64" y1="42.81" x2="78.29" y2="44.14"/>
		<line class="st0" x1="30.15" y1="25.13" x2="31.61" y2="28.16"/>
		<line class="st0" x1="30.15" y1="25.13" x2="31.61" y2="28.16"/>
	</g>
</g>
</svg>
