<?xml version="1.0" encoding="utf-8"?>
<!-- Generator: Adobe Illustrator 23.0.1, SVG Export Plug-In . SVG Version: 6.00 Build 0)  -->
<svg version="1.1" id="Layer_1" xmlns="http://www.w3.org/2000/svg" xmlns:xlink="http://www.w3.org/1999/xlink" x="0px" y="0px"
	 viewBox="0 0 100 100" style="enable-background:new 0 0 100 100;" xml:space="preserve">
<style type="text/css">
	.st0{fill:none;stroke:#676B6C;stroke-width:4.5;stroke-miterlimit:10;}
</style>
<g>
	<g>
		<path class="st0" d="M1357.83,161.3c0,0-10.89,22.52-26.21,33.61c0,0-13.57,10.04,7.65,10.53c1.98,0.05,3.96-0.1,5.93-0.33
			c3.42-0.4,10.47,0.14,4.51,13.18l-6.65,20.74l34.52-32.53c0,0,8.17-8.61-3.74-9.6l-17.7-1.32
			C1356.13,195.57,1366.34,168.27,1357.83,161.3z"/>
		<path class="st0" d="M1344.73,206.16"/>
		<line class="st0" x1="1315.96" y1="164.07" x2="1395.36" y2="241.3"/>
	</g>
</g>
<g>
	<g>
		<path class="st0" d="M1357.83,161.3c0,0-10.89,22.52-26.21,33.61c0,0-13.57,10.04,7.65,10.53c1.98,0.05,3.96-0.1,5.93-0.33
			c3.42-0.4,10.47,0.14,4.51,13.18l-6.65,20.74l34.52-32.53c0,0,8.17-8.61-3.74-9.6l-17.7-1.32
			C1356.13,195.57,1366.34,168.27,1357.83,161.3z"/>
		<path class="st0" d="M1344.73,206.16"/>
		<line class="st0" x1="1315.96" y1="164.07" x2="1395.36" y2="241.3"/>
	</g>
</g>
<g>
	<line class="st0" x1="11.52" y1="10.26" x2="81.52" y2="10.26"/>
	<path class="st0" d="M54.4,50.76c-0.41-0.2-0.41-0.8,0-1C62.38,45.8,68.72,36,71.4,23.55c0.9-4.17,1.39-8.64,1.39-13.29H20.25
		c0,11.28,2.88,21.48,7.52,28.95c2.99,4.8,6.7,8.48,10.86,10.55c0.41,0.2,0.42,0.8,0,1c-10.66,5.28-18.39,20.96-18.39,39.5h52.54
		C72.79,71.72,65.06,56.03,54.4,50.76z"/>
	<line class="st0" x1="11.52" y1="90.26" x2="81.52" y2="90.26"/>
	<path class="st0" d="M47.33,51.33l4.17,3.92c7.29,8.09,14.03,15.44,14.57,29.21h-39.1c0.53-13.21,10.62-28.1,18.56-33.29
		C46.09,50.81,46.84,50.87,47.33,51.33z"/>
	<path class="st0" d="M33.47,35.38c2.3,4.53,5.37,7.09,8.44,9.66l2.97,2.26c1.03,0.52,2.25,0.53,3.29,0.02l3.1-2.29
		c5.63-3.78,10.95-11.29,13.19-22.26C54.99,29.06,43.36,30.75,33.47,35.38z"/>
	<path class="st0" d="M45.89,48.66"/>
	<path class="st0" d="M49.97,48.66"/>
</g>
</svg>
