<svg version="1.1" id="Layer_1" xmlns="http://www.w3.org/2000/svg" x="0" y="0" viewBox="0 0 100 100" xml:space="preserve"><style>.st0,.st1,.st2{fill:none;stroke:#676b6c;stroke-width:4.5;stroke-miterlimit:10}.st1,.st2{stroke:#767777}.st2{fill:#767777}</style><path class="st0" d="M1357.83 161.3s-10.89 22.52-26.21 33.61c0 0-13.57 10.04 7.65 10.53 1.98.05 3.96-.1 5.93-.33 3.42-.4 10.47.14 4.51 13.18l-6.65 20.74 34.52-32.53s8.17-8.61-3.74-9.6l-17.7-1.32c-.01-.01 10.2-27.31 1.69-34.28zM1315.96 164.07l79.4 77.23"/><path class="st0" d="M1357.83 161.3s-10.89 22.52-26.21 33.61c0 0-13.57 10.04 7.65 10.53 1.98.05 3.96-.1 5.93-.33 3.42-.4 10.47.14 4.51 13.18l-6.65 20.74 34.52-32.53s8.17-8.61-3.74-9.6l-17.7-1.32c-.01-.01 10.2-27.31 1.69-34.28zM1315.96 164.07l79.4 77.23"/><path class="st1" d="M25.73 68.41l5.47-13.39 2.45 1.61-4.41 10.72 9.11-6.14 2.03 1.68-10.86 8.58zM47.84 29.41l17.14-17.14 20.38-3.94-5.09 17.38-19.58 17.6-2.89-2.9 18.64-15.75 4.4-11.81L66.6 15.4 50.73 32.19zM32.7 17.94l-19.4-6.13 2.55 21.7 47.62 37.96 4.08-2.98L32.7 17.94zM18.49 31.57l-2.64-16.94 15.23 5.19L63.17 66.8 18.49 31.57zM17.27 62.11l18.9 16.85M57.24 78.88L75.96 62.2M25.66 71.67l-7.27 8.26M66.6 71.47l7.02 7.17"/><circle class="st2" cx="15" cy="83.68" r="4.85"/><circle class="st2" cx="77.52" cy="82.8" r="4.85"/></svg>